<?xml version="1.0" encoding="utf-8" standalone="no"?>
<!DOCTYPE svg PUBLIC "-//W3C//DTD SVG 1.1//EN"
  "http://www.w3.org/Graphics/SVG/1.1/DTD/svg11.dtd">
<!-- Created with matplotlib (https://matplotlib.org/) -->
<svg height="345.6pt" version="1.1" viewBox="0 0 460.8 345.6" width="460.8pt" xmlns="http://www.w3.org/2000/svg" xmlns:xlink="http://www.w3.org/1999/xlink">
 <defs>
  <style type="text/css">
*{stroke-linecap:butt;stroke-linejoin:round;}
  </style>
 </defs>
 <g id="figure_1">
  <g id="patch_1">
   <path d="M 0 345.6 
L 460.8 345.6 
L 460.8 0 
L 0 0 
z
" style="fill:#ffffff;"/>
  </g>
  <g id="axes_1">
   <g id="patch_2">
    <path d="M 57.6 307.584 
L 414.72 307.584 
L 414.72 41.472 
L 57.6 41.472 
z
" style="fill:#ffffff;"/>
   </g>
   <g id="matplotlib.axis_1">
    <g id="xtick_1">
     <g id="line2d_1">
      <defs>
       <path d="M 0 0 
L 0 3.5 
" id="m1e31d1b796" style="stroke:#000000;stroke-width:0.8;"/>
      </defs>
      <g>
       <use style="stroke:#000000;stroke-width:0.8;" x="73.832727" xlink:href="#m1e31d1b796" y="307.584"/>
      </g>
     </g>
     <g id="text_1">
      <!-- 1h -->
      <defs>
       <path d="M 21.875 56.25 
Q 16.796875 51.171875 8.984375 46.484375 
L 8.984375 53.90625 
Q 18.75 60.546875 25 69.53125 
L 29.6875 69.53125 
L 29.6875 2.34375 
L 21.875 2.34375 
z
" id="SimHei-49"/>
       <path d="M 43.75 1.953125 
L 35.9375 1.953125 
L 35.9375 30.078125 
Q 35.9375 34.765625 33.59375 37.5 
Q 31.25 40.234375 27.34375 40.234375 
Q 22.265625 40.234375 17.765625 34.953125 
Q 13.28125 29.6875 13.28125 21.875 
L 13.28125 1.953125 
L 5.46875 1.953125 
L 5.46875 68.75 
L 13.28125 68.75 
L 13.28125 37.5 
Q 16.40625 41.796875 20.109375 44.140625 
Q 23.828125 46.484375 29.6875 46.484375 
Q 36.71875 46.484375 40.234375 42.578125 
Q 43.75 38.671875 43.75 32.8125 
z
" id="SimHei-104"/>
      </defs>
      <g transform="translate(68.832727 321.459)scale(0.1 -0.1)">
       <use xlink:href="#SimHei-49"/>
       <use x="50" xlink:href="#SimHei-104"/>
      </g>
     </g>
    </g>
    <g id="xtick_2">
     <g id="line2d_2">
      <g>
       <use style="stroke:#000000;stroke-width:0.8;" x="127.941818" xlink:href="#m1e31d1b796" y="307.584"/>
      </g>
     </g>
     <g id="text_2">
      <!-- 2h -->
      <defs>
       <path d="M 4.6875 3.90625 
Q 5.078125 9.765625 10.15625 14.453125 
Q 15.234375 19.140625 23.046875 29.09375 
Q 30.859375 39.0625 33.203125 44.53125 
Q 35.546875 50 34.953125 53.90625 
Q 34.375 57.8125 31.25 60.34375 
Q 28.125 62.890625 24.015625 62.5 
Q 19.921875 62.109375 16.203125 59.375 
Q 12.5 56.640625 10.546875 51.171875 
L 3.125 52.34375 
Q 6.25 61.328125 11.125 65.421875 
Q 16.015625 69.53125 22.65625 69.921875 
Q 26.5625 70.3125 29.6875 69.71875 
Q 32.8125 69.140625 36.125 66.984375 
Q 39.453125 64.84375 41.59375 60.546875 
Q 43.75 56.25 43.15625 50.1875 
Q 42.578125 44.140625 37.109375 35.734375 
Q 31.640625 27.34375 16.015625 9.375 
L 44.140625 9.375 
L 44.140625 2.34375 
L 4.6875 2.34375 
z
" id="SimHei-50"/>
      </defs>
      <g transform="translate(122.941818 321.459)scale(0.1 -0.1)">
       <use xlink:href="#SimHei-50"/>
       <use x="50" xlink:href="#SimHei-104"/>
      </g>
     </g>
    </g>
    <g id="xtick_3">
     <g id="line2d_3">
      <g>
       <use style="stroke:#000000;stroke-width:0.8;" x="182.050909" xlink:href="#m1e31d1b796" y="307.584"/>
      </g>
     </g>
     <g id="text_3">
      <!-- 3h -->
      <defs>
       <path d="M 3.90625 19.140625 
L 10.9375 20.3125 
Q 12.5 15.234375 16.015625 11.90625 
Q 19.53125 8.59375 24.796875 8.78125 
Q 30.078125 8.984375 33.203125 13.078125 
Q 36.328125 17.1875 35.9375 22.453125 
Q 35.546875 27.734375 31.828125 30.65625 
Q 28.125 33.59375 19.921875 34.765625 
L 19.921875 39.84375 
Q 28.125 40.625 31.828125 44.140625 
Q 35.546875 47.65625 35.15625 53.3125 
Q 34.765625 58.984375 30.078125 61.515625 
Q 25.390625 64.0625 20.109375 62.109375 
Q 14.84375 60.15625 11.71875 51.171875 
L 4.6875 52.34375 
Q 7.03125 59.375 11.125 64.0625 
Q 15.234375 68.75 22.265625 69.53125 
Q 29.296875 70.3125 34.5625 67.765625 
Q 39.84375 65.234375 41.984375 59.953125 
Q 44.140625 54.6875 42.578125 48.4375 
Q 41.015625 42.1875 33.59375 37.5 
Q 39.0625 35.15625 41.984375 30.46875 
Q 44.921875 25.78125 43.9375 18.15625 
Q 42.96875 10.546875 37.109375 5.859375 
Q 31.25 1.171875 23.828125 1.359375 
Q 16.40625 1.5625 10.9375 6.046875 
Q 5.46875 10.546875 3.90625 19.140625 
z
" id="SimHei-51"/>
      </defs>
      <g transform="translate(177.050909 321.459)scale(0.1 -0.1)">
       <use xlink:href="#SimHei-51"/>
       <use x="50" xlink:href="#SimHei-104"/>
      </g>
     </g>
    </g>
    <g id="xtick_4">
     <g id="line2d_4">
      <g>
       <use style="stroke:#000000;stroke-width:0.8;" x="236.16" xlink:href="#m1e31d1b796" y="307.584"/>
      </g>
     </g>
     <g id="text_4">
      <!-- 4h -->
      <defs>
       <path d="M 31.25 17.1875 
L 1.171875 17.1875 
L 1.171875 23.828125 
L 32.8125 69.53125 
L 38.671875 69.53125 
L 38.671875 23.828125 
L 48.046875 23.828125 
L 48.046875 17.1875 
L 38.671875 17.1875 
L 38.671875 2.34375 
L 31.25 2.34375 
z
M 31.25 23.828125 
L 31.25 54.6875 
L 9.375 23.828125 
z
" id="SimHei-52"/>
      </defs>
      <g transform="translate(231.16 321.459)scale(0.1 -0.1)">
       <use xlink:href="#SimHei-52"/>
       <use x="50" xlink:href="#SimHei-104"/>
      </g>
     </g>
    </g>
    <g id="xtick_5">
     <g id="line2d_5">
      <g>
       <use style="stroke:#000000;stroke-width:0.8;" x="290.269091" xlink:href="#m1e31d1b796" y="307.584"/>
      </g>
     </g>
     <g id="text_5">
      <!-- 5h -->
      <defs>
       <path d="M 8.59375 20.703125 
Q 11.328125 10.15625 17.96875 8.984375 
Q 24.609375 7.8125 28.703125 10.34375 
Q 32.8125 12.890625 34.5625 16.984375 
Q 36.328125 21.09375 36.125 26.171875 
Q 35.9375 31.25 33.390625 34.765625 
Q 30.859375 38.28125 26.953125 39.453125 
Q 23.046875 40.625 18.15625 39.453125 
Q 13.28125 38.28125 10.15625 33.984375 
L 3.515625 34.765625 
Q 4.296875 37.109375 10.9375 68.359375 
L 41.796875 68.359375 
L 41.796875 61.328125 
L 16.796875 61.328125 
Q 14.84375 50.78125 12.890625 44.53125 
Q 18.75 47.265625 23.828125 47.0625 
Q 28.90625 46.875 33.59375 44.71875 
Q 38.28125 42.578125 40.421875 38.859375 
Q 42.578125 35.15625 43.546875 31.4375 
Q 44.53125 27.734375 44.328125 23.4375 
Q 44.140625 19.140625 42.578125 14.640625 
Q 41.015625 10.15625 37.890625 7.21875 
Q 34.765625 4.296875 30.265625 2.53125 
Q 25.78125 0.78125 19.921875 1.171875 
Q 14.0625 1.5625 8.78125 5.46875 
Q 3.515625 9.375 1.5625 18.75 
z
" id="SimHei-53"/>
      </defs>
      <g transform="translate(285.269091 321.459)scale(0.1 -0.1)">
       <use xlink:href="#SimHei-53"/>
       <use x="50" xlink:href="#SimHei-104"/>
      </g>
     </g>
    </g>
    <g id="xtick_6">
     <g id="line2d_6">
      <g>
       <use style="stroke:#000000;stroke-width:0.8;" x="344.378182" xlink:href="#m1e31d1b796" y="307.584"/>
      </g>
     </g>
     <g id="text_6">
      <!-- 6h -->
      <defs>
       <path d="M 3.515625 19.53125 
Q 4.296875 30.859375 6.046875 34.765625 
Q 7.8125 38.671875 11.328125 44.53125 
L 27.34375 69.53125 
L 36.328125 69.53125 
L 19.921875 43.75 
Q 30.46875 46.484375 36.71875 42.96875 
Q 42.96875 39.453125 45.109375 34.953125 
Q 47.265625 30.46875 47.453125 25.1875 
Q 47.65625 19.921875 45.890625 14.84375 
Q 44.140625 9.765625 39.640625 5.65625 
Q 35.15625 1.5625 27.140625 1.171875 
Q 19.140625 0.78125 13.46875 4.09375 
Q 7.8125 7.421875 5.65625 13.46875 
Q 3.515625 19.53125 4.296875 30.859375 
z
M 12.5 16.015625 
Q 19.53125 8.59375 25.390625 8.203125 
Q 31.25 7.8125 35.15625 12.109375 
Q 39.0625 16.40625 39.0625 24.609375 
Q 39.0625 32.8125 34.171875 35.9375 
Q 29.296875 39.0625 23.234375 38.28125 
Q 17.1875 37.5 14.453125 32.421875 
Q 11.71875 27.34375 12.109375 21.671875 
Q 12.5 16.015625 19.53125 8.59375 
z
" id="SimHei-54"/>
      </defs>
      <g transform="translate(339.378182 321.459)scale(0.1 -0.1)">
       <use xlink:href="#SimHei-54"/>
       <use x="50" xlink:href="#SimHei-104"/>
      </g>
     </g>
    </g>
    <g id="xtick_7">
     <g id="line2d_7">
      <g>
       <use style="stroke:#000000;stroke-width:0.8;" x="398.487273" xlink:href="#m1e31d1b796" y="307.584"/>
      </g>
     </g>
     <g id="text_7">
      <!-- 7h -->
      <defs>
       <path d="M 13.28125 2.34375 
Q 20.3125 32.03125 37.890625 61.328125 
L 4.296875 61.328125 
L 4.296875 68.359375 
L 46.09375 68.359375 
L 46.09375 61.71875 
Q 27.734375 32.03125 21.875 2.34375 
L 13.28125 2.34375 
z
" id="SimHei-55"/>
      </defs>
      <g transform="translate(393.487273 321.459)scale(0.1 -0.1)">
       <use xlink:href="#SimHei-55"/>
       <use x="50" xlink:href="#SimHei-104"/>
      </g>
     </g>
    </g>
   </g>
   <g id="matplotlib.axis_2">
    <g id="ytick_1">
     <g id="line2d_8">
      <defs>
       <path d="M 0 0 
L -3.5 0 
" id="m5b46434e32" style="stroke:#000000;stroke-width:0.8;"/>
      </defs>
      <g>
       <use style="stroke:#000000;stroke-width:0.8;" x="57.6" xlink:href="#m5b46434e32" y="256.512"/>
      </g>
     </g>
     <g id="text_8">
      <!-- 2000 -->
      <defs>
       <path d="M 3.125 29.296875 
Q 3.90625 50 6.4375 56.046875 
Q 8.984375 62.109375 13.671875 66.015625 
Q 18.359375 69.921875 25.1875 69.921875 
Q 32.03125 69.921875 37.109375 64.25 
Q 42.1875 58.59375 43.75 50 
Q 45.3125 41.40625 44.71875 30.265625 
Q 44.140625 19.140625 40.8125 12.109375 
Q 37.5 5.078125 30.859375 2.34375 
Q 24.21875 -0.390625 17.578125 2.921875 
Q 10.9375 6.25 8.203125 11.71875 
Q 5.46875 17.1875 4.296875 23.234375 
Q 3.125 29.296875 3.90625 50 
z
M 12.890625 52.734375 
Q 10.546875 31.25 12.5 22.84375 
Q 14.453125 14.453125 18.9375 10.9375 
Q 23.4375 7.421875 28.125 9.5625 
Q 32.8125 11.71875 34.953125 18.15625 
Q 37.109375 24.609375 37.109375 32.21875 
Q 37.109375 39.84375 36.515625 46.09375 
Q 35.9375 52.34375 33 57.421875 
Q 30.078125 62.5 25.1875 62.6875 
Q 20.3125 62.890625 16.59375 57.8125 
Q 12.890625 52.734375 10.546875 31.25 
z
" id="SimHei-48"/>
      </defs>
      <g transform="translate(30.6 259.9495)scale(0.1 -0.1)">
       <use xlink:href="#SimHei-50"/>
       <use x="50" xlink:href="#SimHei-48"/>
       <use x="100" xlink:href="#SimHei-48"/>
       <use x="150" xlink:href="#SimHei-48"/>
      </g>
     </g>
    </g>
    <g id="ytick_2">
     <g id="line2d_9">
      <g>
       <use style="stroke:#000000;stroke-width:0.8;" x="57.6" xlink:href="#m5b46434e32" y="202.752"/>
      </g>
     </g>
     <g id="text_9">
      <!-- 4000 -->
      <g transform="translate(30.6 206.1895)scale(0.1 -0.1)">
       <use xlink:href="#SimHei-52"/>
       <use x="50" xlink:href="#SimHei-48"/>
       <use x="100" xlink:href="#SimHei-48"/>
       <use x="150" xlink:href="#SimHei-48"/>
      </g>
     </g>
    </g>
    <g id="ytick_3">
     <g id="line2d_10">
      <g>
       <use style="stroke:#000000;stroke-width:0.8;" x="57.6" xlink:href="#m5b46434e32" y="148.992"/>
      </g>
     </g>
     <g id="text_10">
      <!-- 6000 -->
      <g transform="translate(30.6 152.4295)scale(0.1 -0.1)">
       <use xlink:href="#SimHei-54"/>
       <use x="50" xlink:href="#SimHei-48"/>
       <use x="100" xlink:href="#SimHei-48"/>
       <use x="150" xlink:href="#SimHei-48"/>
      </g>
     </g>
    </g>
    <g id="ytick_4">
     <g id="line2d_11">
      <g>
       <use style="stroke:#000000;stroke-width:0.8;" x="57.6" xlink:href="#m5b46434e32" y="95.232"/>
      </g>
     </g>
     <g id="text_11">
      <!-- 8000 -->
      <defs>
       <path d="M 2.734375 16.796875 
Q 2.734375 26.171875 5.078125 30.65625 
Q 7.421875 35.15625 12.890625 37.890625 
Q 8.203125 40.625 6.640625 43.9375 
Q 5.078125 47.265625 4.875 51.5625 
Q 4.6875 55.859375 6.046875 58.984375 
Q 7.421875 62.109375 10.15625 64.84375 
Q 12.890625 67.578125 16.203125 68.546875 
Q 19.53125 69.53125 23.4375 69.53125 
Q 27.34375 69.53125 30.46875 68.75 
Q 33.59375 67.96875 37.109375 65.421875 
Q 40.625 62.890625 42.1875 58.203125 
Q 43.75 53.515625 41.984375 47.265625 
Q 40.234375 41.015625 32.8125 37.5 
Q 39.453125 35.546875 42.1875 31.4375 
Q 44.921875 27.34375 44.921875 21.484375 
Q 44.921875 15.625 43.15625 12.109375 
Q 41.40625 8.59375 39.25 6.25 
Q 37.109375 3.90625 33.390625 2.53125 
Q 29.6875 1.171875 24.015625 1.171875 
Q 18.359375 1.171875 14.25 2.53125 
Q 10.15625 3.90625 7.421875 6.640625 
Q 4.6875 9.375 3.703125 13.078125 
Q 2.734375 16.796875 2.734375 26.171875 
z
M 10.9375 26.5625 
Q 10.546875 17.1875 12.296875 13.671875 
Q 14.0625 10.15625 18.75 9.171875 
Q 23.4375 8.203125 28.515625 9.375 
Q 33.59375 10.546875 35.546875 14.84375 
Q 37.5 19.140625 36.90625 23.4375 
Q 36.328125 27.734375 32.03125 30.65625 
Q 27.734375 33.59375 22.65625 33.203125 
Q 17.578125 32.8125 14.25 29.6875 
Q 10.9375 26.5625 10.546875 17.1875 
z
M 12.109375 56.25 
Q 12.109375 48.4375 14.84375 44.921875 
Q 17.578125 41.40625 23.4375 41.40625 
Q 29.296875 41.40625 32.21875 44.921875 
Q 35.15625 48.4375 34.953125 53.3125 
Q 34.765625 58.203125 31.4375 60.546875 
Q 28.125 62.890625 22.453125 62.5 
Q 16.796875 62.109375 14.453125 59.171875 
Q 12.109375 56.25 12.109375 48.4375 
z
" id="SimHei-56"/>
      </defs>
      <g transform="translate(30.6 98.6695)scale(0.1 -0.1)">
       <use xlink:href="#SimHei-56"/>
       <use x="50" xlink:href="#SimHei-48"/>
       <use x="100" xlink:href="#SimHei-48"/>
       <use x="150" xlink:href="#SimHei-48"/>
      </g>
     </g>
    </g>
    <g id="ytick_5">
     <g id="line2d_12">
      <g>
       <use style="stroke:#000000;stroke-width:0.8;" x="57.6" xlink:href="#m5b46434e32" y="41.472"/>
      </g>
     </g>
     <g id="text_12">
      <!-- 10000 -->
      <g transform="translate(25.6 44.9095)scale(0.1 -0.1)">
       <use xlink:href="#SimHei-49"/>
       <use x="50" xlink:href="#SimHei-48"/>
       <use x="100" xlink:href="#SimHei-48"/>
       <use x="150" xlink:href="#SimHei-48"/>
       <use x="200" xlink:href="#SimHei-48"/>
      </g>
     </g>
    </g>
   </g>
   <g id="line2d_13">
    <path clip-path="url(#pe95e8e3eaa)" d="M 73.832727 250.84032 
L 127.941818 247.82976 
L 182.050909 268.3392 
L 236.16 100.93056 
L 290.269091 220.97664 
L 344.378182 283.392 
L 398.487273 119.71968 
" style="fill:none;stroke:#1f77b4;stroke-linecap:square;stroke-width:1.5;"/>
    <defs>
     <path d="M 0 -3 
L -0.673542 -0.927051 
L -2.85317 -0.927051 
L -1.089814 0.354102 
L -1.763356 2.427051 
L -0 1.145898 
L 1.763356 2.427051 
L 1.089814 0.354102 
L 2.85317 -0.927051 
L 0.673542 -0.927051 
z
" id="m97142fd18c" style="stroke:#ff0000;stroke-linejoin:bevel;"/>
    </defs>
    <g clip-path="url(#pe95e8e3eaa)">
     <use style="fill:#1f77b4;stroke:#ff0000;stroke-linejoin:bevel;" x="73.832727" xlink:href="#m97142fd18c" y="250.84032"/>
     <use style="fill:#1f77b4;stroke:#ff0000;stroke-linejoin:bevel;" x="127.941818" xlink:href="#m97142fd18c" y="247.82976"/>
     <use style="fill:#1f77b4;stroke:#ff0000;stroke-linejoin:bevel;" x="182.050909" xlink:href="#m97142fd18c" y="268.3392"/>
     <use style="fill:#1f77b4;stroke:#ff0000;stroke-linejoin:bevel;" x="236.16" xlink:href="#m97142fd18c" y="100.93056"/>
     <use style="fill:#1f77b4;stroke:#ff0000;stroke-linejoin:bevel;" x="290.269091" xlink:href="#m97142fd18c" y="220.97664"/>
     <use style="fill:#1f77b4;stroke:#ff0000;stroke-linejoin:bevel;" x="344.378182" xlink:href="#m97142fd18c" y="283.392"/>
     <use style="fill:#1f77b4;stroke:#ff0000;stroke-linejoin:bevel;" x="398.487273" xlink:href="#m97142fd18c" y="119.71968"/>
    </g>
   </g>
   <g id="line2d_14">
    <path clip-path="url(#pe95e8e3eaa)" d="M 73.832727 277.0752 
L 127.941818 217.37472 
L 182.050909 292.36992 
L 236.16 71.41632 
L 290.269091 247.82976 
L 344.378182 229.632 
L 398.487273 304.27776 
" style="fill:none;stroke:#ff7f0e;stroke-linecap:square;stroke-width:2;"/>
    <defs>
     <path d="M 0 3 
C 0.795609 3 1.55874 2.683901 2.12132 2.12132 
C 2.683901 1.55874 3 0.795609 3 0 
C 3 -0.795609 2.683901 -1.55874 2.12132 -2.12132 
C 1.55874 -2.683901 0.795609 -3 0 -3 
C -0.795609 -3 -1.55874 -2.683901 -2.12132 -2.12132 
C -2.683901 -1.55874 -3 -0.795609 -3 0 
C -3 0.795609 -2.683901 1.55874 -2.12132 2.12132 
C -1.55874 2.683901 -0.795609 3 0 3 
z
" id="mf61f00a426" style="stroke:#0000ff;"/>
    </defs>
    <g clip-path="url(#pe95e8e3eaa)">
     <use style="fill:#ff7f0e;stroke:#0000ff;" x="73.832727" xlink:href="#mf61f00a426" y="277.0752"/>
     <use style="fill:#ff7f0e;stroke:#0000ff;" x="127.941818" xlink:href="#mf61f00a426" y="217.37472"/>
     <use style="fill:#ff7f0e;stroke:#0000ff;" x="182.050909" xlink:href="#mf61f00a426" y="292.36992"/>
     <use style="fill:#ff7f0e;stroke:#0000ff;" x="236.16" xlink:href="#mf61f00a426" y="71.41632"/>
     <use style="fill:#ff7f0e;stroke:#0000ff;" x="290.269091" xlink:href="#mf61f00a426" y="247.82976"/>
     <use style="fill:#ff7f0e;stroke:#0000ff;" x="344.378182" xlink:href="#mf61f00a426" y="229.632"/>
     <use style="fill:#ff7f0e;stroke:#0000ff;" x="398.487273" xlink:href="#mf61f00a426" y="304.27776"/>
    </g>
   </g>
   <g id="patch_3">
    <path d="M 57.6 307.584 
L 57.6 41.472 
" style="fill:none;stroke:#000000;stroke-linecap:square;stroke-linejoin:miter;stroke-width:0.8;"/>
   </g>
   <g id="patch_4">
    <path d="M 414.72 307.584 
L 414.72 41.472 
" style="fill:none;stroke:#000000;stroke-linecap:square;stroke-linejoin:miter;stroke-width:0.8;"/>
   </g>
   <g id="patch_5">
    <path d="M 57.6 307.584 
L 414.72 307.584 
" style="fill:none;stroke:#000000;stroke-linecap:square;stroke-linejoin:miter;stroke-width:0.8;"/>
   </g>
   <g id="patch_6">
    <path d="M 57.6 41.472 
L 414.72 41.472 
" style="fill:none;stroke:#000000;stroke-linecap:square;stroke-linejoin:miter;stroke-width:0.8;"/>
   </g>
   <g id="text_13">
    <!-- 2211 -->
    <g transform="translate(63.832727 248.15232)scale(0.1 -0.1)">
     <use xlink:href="#SimHei-50"/>
     <use x="50" xlink:href="#SimHei-50"/>
     <use x="100" xlink:href="#SimHei-49"/>
     <use x="150" xlink:href="#SimHei-49"/>
    </g>
   </g>
   <g id="text_14">
    <!-- 2323 -->
    <g transform="translate(117.941818 245.14176)scale(0.1 -0.1)">
     <use xlink:href="#SimHei-50"/>
     <use x="50" xlink:href="#SimHei-51"/>
     <use x="100" xlink:href="#SimHei-50"/>
     <use x="150" xlink:href="#SimHei-51"/>
    </g>
   </g>
   <g id="text_15">
    <!-- 1560 -->
    <g transform="translate(172.050909 265.6512)scale(0.1 -0.1)">
     <use xlink:href="#SimHei-49"/>
     <use x="50" xlink:href="#SimHei-53"/>
     <use x="100" xlink:href="#SimHei-54"/>
     <use x="150" xlink:href="#SimHei-48"/>
    </g>
   </g>
   <g id="text_16">
    <!-- 7788 -->
    <g transform="translate(226.16 98.24256)scale(0.1 -0.1)">
     <use xlink:href="#SimHei-55"/>
     <use x="50" xlink:href="#SimHei-55"/>
     <use x="100" xlink:href="#SimHei-56"/>
     <use x="150" xlink:href="#SimHei-56"/>
    </g>
   </g>
   <g id="text_17">
    <!-- 3322 -->
    <g transform="translate(280.269091 218.28864)scale(0.1 -0.1)">
     <use xlink:href="#SimHei-51"/>
     <use x="50" xlink:href="#SimHei-51"/>
     <use x="100" xlink:href="#SimHei-50"/>
     <use x="150" xlink:href="#SimHei-50"/>
    </g>
   </g>
   <g id="text_18">
    <!-- 1000 -->
    <g transform="translate(334.378182 280.704)scale(0.1 -0.1)">
     <use xlink:href="#SimHei-49"/>
     <use x="50" xlink:href="#SimHei-48"/>
     <use x="100" xlink:href="#SimHei-48"/>
     <use x="150" xlink:href="#SimHei-48"/>
    </g>
   </g>
   <g id="text_19">
    <!-- 7089 -->
    <defs>
     <path d="M 12.5 1.171875 
Q 21.09375 15.625 26.5625 27.34375 
Q 16.796875 25.78125 10.34375 29.875 
Q 3.90625 33.984375 2.53125 41.015625 
Q 1.171875 48.046875 2.734375 53.703125 
Q 4.296875 59.375 7.609375 63.078125 
Q 10.9375 66.796875 15.625 68.359375 
Q 20.3125 69.921875 24.015625 69.921875 
Q 27.734375 69.921875 31.640625 68.359375 
Q 35.546875 66.796875 38.671875 63.671875 
Q 41.796875 60.546875 42.96875 57.21875 
Q 44.140625 53.90625 44.140625 48.625 
Q 44.140625 43.359375 40.234375 35.15625 
Q 36.328125 26.953125 21.09375 1.171875 
z
M 9.765625 50 
Q 10.9375 39.84375 14.640625 36.515625 
Q 18.359375 33.203125 22.65625 33.59375 
Q 26.953125 33.984375 29.484375 35.9375 
Q 32.03125 37.890625 34.375 42.578125 
Q 35.9375 48.4375 35.15625 52.53125 
Q 34.375 56.640625 31.046875 59.375 
Q 27.734375 62.109375 23.828125 62.109375 
Q 21.484375 62.5 17.765625 60.9375 
Q 14.0625 59.375 11.90625 54.6875 
Q 9.765625 50 10.9375 39.84375 
z
" id="SimHei-57"/>
    </defs>
    <g transform="translate(388.487273 117.03168)scale(0.1 -0.1)">
     <use xlink:href="#SimHei-55"/>
     <use x="50" xlink:href="#SimHei-48"/>
     <use x="100" xlink:href="#SimHei-56"/>
     <use x="150" xlink:href="#SimHei-57"/>
    </g>
   </g>
   <g id="text_20">
    <!-- 1235 -->
    <g transform="translate(63.832727 263.6352)scale(0.1 -0.1)">
     <use xlink:href="#SimHei-49"/>
     <use x="50" xlink:href="#SimHei-50"/>
     <use x="100" xlink:href="#SimHei-51"/>
     <use x="150" xlink:href="#SimHei-53"/>
    </g>
   </g>
   <g id="text_21">
    <!-- 3456 -->
    <g transform="translate(117.941818 203.93472)scale(0.1 -0.1)">
     <use xlink:href="#SimHei-51"/>
     <use x="50" xlink:href="#SimHei-52"/>
     <use x="100" xlink:href="#SimHei-53"/>
     <use x="150" xlink:href="#SimHei-54"/>
    </g>
   </g>
   <g id="text_22">
    <!-- 666 -->
    <g transform="translate(174.550909 278.92992)scale(0.1 -0.1)">
     <use xlink:href="#SimHei-54"/>
     <use x="50" xlink:href="#SimHei-54"/>
     <use x="100" xlink:href="#SimHei-54"/>
    </g>
   </g>
   <g id="text_23">
    <!-- 8886 -->
    <g transform="translate(226.16 57.97632)scale(0.1 -0.1)">
     <use xlink:href="#SimHei-56"/>
     <use x="50" xlink:href="#SimHei-56"/>
     <use x="100" xlink:href="#SimHei-56"/>
     <use x="150" xlink:href="#SimHei-54"/>
    </g>
   </g>
   <g id="text_24">
    <!-- 2323 -->
    <g transform="translate(280.269091 234.38976)scale(0.1 -0.1)">
     <use xlink:href="#SimHei-50"/>
     <use x="50" xlink:href="#SimHei-51"/>
     <use x="100" xlink:href="#SimHei-50"/>
     <use x="150" xlink:href="#SimHei-51"/>
    </g>
   </g>
   <g id="text_25">
    <!-- 3000 -->
    <g transform="translate(334.378182 216.192)scale(0.1 -0.1)">
     <use xlink:href="#SimHei-51"/>
     <use x="50" xlink:href="#SimHei-48"/>
     <use x="100" xlink:href="#SimHei-48"/>
     <use x="150" xlink:href="#SimHei-48"/>
    </g>
   </g>
   <g id="text_26">
    <!-- 223 -->
    <g transform="translate(390.987273 290.83776)scale(0.1 -0.1)">
     <use xlink:href="#SimHei-50"/>
     <use x="50" xlink:href="#SimHei-50"/>
     <use x="100" xlink:href="#SimHei-51"/>
    </g>
   </g>
   <g id="text_27">
    <!-- 股票价格波动 -->
    <defs>
     <path d="M 24.609375 0.78125 
Q 30.078125 0.390625 32.8125 0.78125 
Q 35.546875 1.171875 35.546875 7.03125 
L 35.546875 25.390625 
L 20.703125 25.390625 
Q 19.53125 14.0625 17.578125 6.828125 
Q 15.625 -0.390625 11.71875 -8.203125 
Q 8.59375 -5.078125 3.515625 -3.90625 
Q 8.59375 2.34375 10.734375 11.90625 
Q 12.890625 21.484375 13.078125 33.59375 
Q 13.28125 45.703125 13.28125 58.203125 
Q 13.28125 70.703125 12.890625 76.5625 
L 42.96875 76.5625 
Q 42.578125 68.75 42.578125 60.9375 
L 42.578125 3.515625 
Q 42.578125 -3.90625 39.25 -5.46875 
Q 35.9375 -7.03125 27.34375 -8.59375 
Q 26.5625 -3.515625 24.609375 0.78125 
z
M 81.640625 -4.296875 
Q 77.34375 -2.34375 69.53125 4.296875 
Q 65.625 0.390625 60.546875 -3.3125 
Q 55.46875 -7.03125 48.4375 -10.9375 
Q 45.703125 -5.859375 42.578125 -3.515625 
Q 50.78125 -0.78125 55.46875 2.140625 
Q 60.15625 5.078125 64.0625 9.375 
Q 59.765625 14.84375 56.640625 21.484375 
Q 53.515625 27.34375 51.953125 33.59375 
Q 50.390625 33.59375 48.828125 33.59375 
L 48.828125 40.625 
Q 55.46875 40.234375 61.71875 40.234375 
L 89.453125 40.234375 
Q 88.28125 34.375 83.984375 25 
Q 79.6875 15.625 74.609375 9.375 
Q 78.515625 6.640625 84.171875 3.703125 
Q 89.84375 0.78125 96.875 -0.78125 
Q 92.96875 -3.90625 91.40625 -9.375 
z
M 83.203125 58.59375 
Q 82.8125 53.515625 87.5 53.515625 
L 96.09375 53.90625 
Q 94.53125 50.390625 94.140625 46.875 
L 84.375 46.875 
Q 75.390625 46.875 75.390625 53.90625 
L 75.390625 70.3125 
L 62.5 70.3125 
Q 62.5 60.9375 60.34375 54.875 
Q 58.203125 48.828125 51.171875 42.96875 
Q 49.21875 46.09375 45.3125 48.828125 
Q 53.515625 53.90625 54.296875 61.71875 
Q 55.078125 69.53125 54.6875 76.5625 
L 83.59375 76.5625 
Q 83.203125 73.046875 83.203125 68.359375 
z
M 35.546875 32.03125 
L 35.546875 48.046875 
L 21.09375 48.046875 
L 21.09375 32.03125 
z
M 35.546875 54.296875 
L 35.546875 70.3125 
L 21.09375 70.3125 
L 21.09375 54.296875 
z
M 59.375 33.984375 
Q 60.9375 27.34375 63.28125 23.046875 
Q 66.015625 18.359375 69.53125 14.453125 
Q 76.953125 24.21875 78.90625 33.984375 
L 61.71875 33.984375 
z
" id="SimHei-32929"/>
     <path d="M 12.890625 43.75 
Q 13.28125 49.609375 13.28125 54.6875 
Q 13.28125 60.15625 12.890625 66.015625 
L 35.546875 66.015625 
L 35.546875 73.4375 
L 21.484375 73.4375 
Q 12.109375 73.4375 7.421875 73.046875 
L 7.421875 79.6875 
Q 13.28125 79.296875 22.265625 79.296875 
L 76.5625 79.296875 
Q 83.59375 79.296875 92.578125 79.6875 
L 92.578125 73.046875 
Q 83.59375 73.4375 76.5625 73.4375 
L 62.890625 73.4375 
L 62.890625 66.015625 
L 86.71875 66.015625 
Q 86.328125 60.15625 86.328125 54.6875 
Q 86.328125 49.609375 86.71875 43.75 
z
M 4.6875 23.4375 
Q 8.984375 23.046875 14.453125 23.046875 
L 83.203125 23.046875 
Q 88.671875 23.046875 96.09375 23.4375 
L 96.09375 16.796875 
Q 88.671875 17.1875 83.203125 17.1875 
L 54.296875 17.1875 
L 54.296875 -0.78125 
Q 54.296875 -5.859375 50.1875 -7.8125 
Q 46.09375 -9.765625 39.84375 -10.546875 
Q 39.0625 -5.859375 36.328125 -1.5625 
Q 42.1875 -1.953125 44.328125 -1.5625 
Q 46.484375 -1.171875 46.484375 1.5625 
L 46.484375 17.1875 
L 14.453125 17.1875 
Q 8.984375 17.1875 4.6875 16.796875 
z
M 71.875 36.328125 
Q 78.515625 36.328125 85.15625 36.71875 
L 85.15625 30.078125 
Q 78.125 30.46875 72.265625 30.46875 
L 26.953125 30.46875 
Q 20.703125 30.46875 14.453125 30.078125 
L 14.453125 36.71875 
Q 20.703125 36.328125 27.34375 36.328125 
z
M 71.09375 12.109375 
Q 87.109375 3.90625 93.359375 0.390625 
Q 89.84375 -2.734375 87.890625 -6.640625 
Q 81.25 -1.5625 66.40625 5.46875 
Q 69.53125 8.203125 71.09375 12.109375 
z
M 6.25 -0.390625 
Q 10.15625 1.171875 15.8125 4.09375 
Q 21.484375 7.03125 26.953125 13.28125 
Q 29.6875 10.15625 33.984375 7.03125 
Q 31.25 5.859375 25.78125 1.953125 
Q 20.3125 -1.953125 12.5 -6.640625 
Q 10.546875 -3.125 6.25 -0.390625 
z
M 78.90625 50 
L 78.90625 59.375 
L 62.890625 59.375 
L 62.890625 50 
z
M 35.546875 50 
L 35.546875 59.375 
L 20.703125 59.375 
L 20.703125 50 
z
M 55.46875 50 
L 55.46875 59.375 
L 42.578125 59.375 
L 42.578125 50 
z
M 55.46875 66.015625 
L 55.46875 73.4375 
L 42.578125 73.4375 
L 42.578125 66.015625 
z
" id="SimHei-31080"/>
     <path d="M 34.375 77.734375 
Q 32.03125 73.828125 25.78125 58.984375 
L 25.78125 7.03125 
Q 25.78125 -3.515625 26.171875 -10.15625 
L 18.359375 -10.15625 
Q 18.359375 -3.515625 18.75 7.03125 
L 18.75 46.484375 
Q 14.0625 37.890625 10.15625 32.8125 
Q 8.203125 35.546875 3.515625 38.28125 
Q 11.71875 47.265625 17.578125 59.375 
Q 23.4375 71.484375 25.390625 80.859375 
Q 30.46875 78.515625 34.375 77.734375 
z
M 65.234375 73.4375 
Q 75.78125 55.078125 96.09375 46.09375 
Q 92.578125 42.96875 90.234375 39.0625 
Q 73.828125 48.4375 61.71875 67.1875 
Q 51.5625 48.828125 35.15625 36.71875 
Q 33.203125 39.453125 29.6875 42.578125 
Q 44.140625 51.953125 50.78125 63.28125 
Q 57.421875 74.609375 58.59375 80.46875 
Q 64.84375 77.34375 67.578125 76.5625 
z
M 54.296875 41.40625 
Q 53.125 32.421875 51.953125 16.984375 
Q 50.78125 1.5625 36.328125 -10.546875 
Q 33.984375 -7.03125 30.078125 -4.6875 
Q 44.53125 5.46875 45.5 19.71875 
Q 46.484375 33.984375 46.09375 42.1875 
Q 51.171875 41.40625 54.296875 41.40625 
z
M 79.296875 42.1875 
Q 78.90625 33.59375 78.90625 26.953125 
L 78.90625 2.34375 
Q 78.90625 -3.515625 79.296875 -10.15625 
L 71.09375 -10.15625 
Q 71.484375 -3.515625 71.484375 2.734375 
L 71.484375 29.296875 
Q 71.484375 33.59375 71.09375 42.1875 
L 79.296875 42.1875 
z
" id="SimHei-20215"/>
     <path d="M 63.671875 76.171875 
Q 62.109375 74.21875 58.59375 67.96875 
L 87.890625 67.96875 
Q 85.15625 60.15625 81.4375 53.703125 
Q 77.734375 47.265625 72.65625 41.40625 
Q 77.34375 38.28125 84.5625 35.734375 
Q 91.796875 33.203125 96.09375 32.8125 
Q 93.359375 29.6875 91.796875 25 
Q 86.71875 26.953125 80.078125 29.875 
Q 73.4375 32.8125 67.1875 37.5 
Q 61.328125 33.203125 55.265625 30.265625 
Q 49.21875 27.34375 40.234375 24.21875 
Q 38.671875 27.734375 35.9375 30.078125 
Q 44.140625 32.03125 50.96875 35.15625 
Q 57.8125 38.28125 62.109375 41.796875 
Q 56.640625 47.65625 51.953125 55.859375 
Q 49.609375 52.34375 44.921875 46.09375 
Q 42.1875 48.4375 38.671875 50 
Q 44.140625 55.46875 48.625 63.671875 
Q 53.125 71.875 55.46875 79.6875 
Q 58.984375 77.34375 63.671875 76.171875 
z
M 87.109375 25.78125 
Q 86.71875 21.09375 86.71875 8.984375 
Q 86.71875 -3.125 87.109375 -8.984375 
L 78.90625 -8.984375 
L 78.90625 -2.734375 
L 54.6875 -2.734375 
L 54.6875 -9.375 
L 46.484375 -9.375 
Q 46.875 -3.125 46.875 8.59375 
Q 46.875 20.703125 46.484375 25.78125 
L 87.109375 25.78125 
z
M 28.90625 79.6875 
Q 28.515625 74.609375 28.515625 69.921875 
L 28.515625 59.765625 
Q 35.9375 59.765625 39.453125 60.15625 
L 39.453125 53.125 
Q 35.9375 53.515625 28.515625 53.515625 
L 28.515625 42.578125 
Q 30.46875 43.75 33.203125 46.09375 
Q 36.71875 40.625 39.84375 34.375 
Q 36.71875 32.421875 33.984375 30.46875 
Q 30.859375 37.109375 28.515625 41.015625 
L 28.515625 4.296875 
Q 28.515625 -4.296875 28.90625 -9.765625 
L 21.09375 -9.765625 
Q 21.484375 -4.296875 21.484375 4.296875 
L 21.484375 37.890625 
Q 17.96875 28.90625 9.765625 13.28125 
Q 7.421875 16.015625 3.90625 17.96875 
Q 10.15625 27.734375 14.0625 37.109375 
Q 17.96875 46.484375 19.53125 53.515625 
Q 14.0625 53.515625 7.421875 53.125 
L 7.421875 60.15625 
Q 14.453125 59.765625 21.484375 59.765625 
L 21.484375 69.921875 
Q 21.484375 74.21875 21.09375 79.6875 
z
M 78.90625 3.125 
L 78.90625 19.921875 
L 54.6875 19.921875 
L 54.6875 3.125 
z
M 67.1875 45.703125 
Q 73.046875 51.5625 77.734375 62.109375 
L 55.46875 62.109375 
Q 60.15625 52.34375 67.1875 45.703125 
z
" id="SimHei-26684"/>
     <path d="M 79.296875 51.171875 
Q 80.859375 56.25 81.640625 60.15625 
L 67.578125 60.15625 
L 67.578125 42.96875 
L 86.71875 42.96875 
Q 84.375 32.8125 80.078125 23.625 
Q 75.78125 14.453125 70.703125 8.59375 
Q 74.609375 5.46875 81.25 2.734375 
Q 87.890625 0 96.484375 -1.5625 
Q 92.1875 -4.6875 90.234375 -9.375 
Q 82.03125 -6.640625 75 -2.734375 
Q 67.96875 1.171875 65.625 3.515625 
Q 61.71875 0.390625 55.265625 -3.3125 
Q 48.828125 -7.03125 39.0625 -10.546875 
Q 37.109375 -7.8125 32.03125 -5.859375 
Q 39.453125 -3.90625 47.84375 0.390625 
Q 56.25 4.6875 60.15625 8.59375 
Q 51.953125 20.3125 48.046875 36.328125 
L 44.140625 36.328125 
Q 43.75 21.875 38.859375 11.328125 
Q 33.984375 0.78125 29.296875 -4.6875 
Q 26.5625 -2.34375 21.484375 -0.78125 
Q 27.34375 5.078125 30.46875 11.125 
Q 33.59375 17.1875 35.34375 23.046875 
Q 37.109375 28.90625 37.296875 44.140625 
Q 37.5 59.375 36.71875 66.796875 
L 60.546875 66.796875 
Q 60.546875 75.78125 60.15625 81.25 
L 67.96875 81.25 
Q 67.578125 76.5625 67.578125 66.796875 
L 91.40625 66.796875 
Q 91.015625 64.453125 89.84375 59.953125 
Q 88.671875 55.46875 87.5 50 
Q 82.8125 50.78125 79.296875 51.171875 
z
M 55.078125 36.328125 
Q 59.375 21.875 65.625 14.453125 
Q 72.65625 23.046875 76.953125 36.328125 
z
M 30.46875 26.5625 
Q 26.5625 21.484375 19.71875 11.125 
Q 12.890625 0.78125 10.546875 -3.125 
Q 7.421875 0.78125 3.515625 4.296875 
Q 8.203125 8.203125 14.640625 17.1875 
Q 21.09375 26.171875 24.21875 32.8125 
L 30.46875 26.5625 
z
M 60.546875 42.96875 
L 60.546875 60.15625 
L 44.53125 60.15625 
L 44.53125 42.96875 
z
M 14.453125 76.953125 
Q 25 70.703125 31.25 66.40625 
Q 28.125 62.890625 26.171875 59.375 
Q 19.53125 64.84375 9.765625 70.3125 
Q 12.109375 73.4375 14.453125 76.953125 
z
M 9.375 55.078125 
Q 17.578125 50.78125 26.953125 44.53125 
Q 23.828125 41.796875 21.875 37.890625 
Q 14.453125 44.140625 5.46875 48.4375 
Q 7.03125 51.171875 9.375 55.078125 
z
" id="SimHei-27874"/>
     <path d="M 64.453125 80.46875 
Q 69.140625 79.296875 73.4375 79.296875 
Q 72.65625 75.390625 72.453125 70.5 
Q 72.265625 65.625 72.265625 58.59375 
L 94.140625 58.59375 
Q 93.75 53.515625 93.359375 47.265625 
L 91.40625 2.734375 
Q 90.234375 -5.078125 84.953125 -6.828125 
Q 79.6875 -8.59375 73.046875 -9.375 
Q 71.875 -4.6875 69.140625 -0.78125 
Q 77.734375 -1.171875 80.859375 0.1875 
Q 83.984375 1.5625 83.984375 5.46875 
L 86.328125 51.953125 
L 72.265625 51.953125 
Q 71.484375 34.765625 69.71875 25.78125 
Q 67.96875 16.796875 64.25 9.171875 
Q 60.546875 1.5625 49.21875 -10.546875 
Q 45.3125 -6.640625 42.1875 -5.46875 
Q 49.609375 0.390625 54.296875 6.828125 
Q 58.984375 13.28125 60.9375 20.109375 
Q 62.890625 26.953125 63.671875 34.375 
Q 64.453125 41.796875 64.84375 51.953125 
L 58.203125 51.953125 
Q 53.90625 51.953125 48.046875 51.5625 
L 48.046875 58.984375 
Q 53.90625 58.59375 58.984375 58.59375 
L 64.84375 58.59375 
L 64.84375 69.53125 
Q 64.84375 75 64.453125 80.46875 
z
M 4.296875 47.265625 
Q 10.15625 46.875 18.359375 46.875 
L 33.203125 46.875 
Q 40.234375 46.875 49.21875 47.265625 
L 49.21875 40.234375 
Q 40.234375 40.625 33.59375 40.625 
L 29.296875 40.625 
Q 26.953125 34.375 24.015625 27.34375 
Q 21.09375 20.3125 17.1875 13.28125 
Q 32.421875 14.84375 40.234375 16.40625 
Q 38.28125 21.09375 33.984375 28.125 
Q 38.28125 30.46875 40.234375 32.03125 
Q 44.140625 25 46.875 20.109375 
Q 49.609375 15.234375 52.734375 8.203125 
Q 49.609375 6.25 45.703125 4.296875 
Q 44.140625 7.8125 42.96875 10.15625 
Q 30.46875 8.203125 22.84375 7.03125 
Q 15.234375 5.859375 9.765625 3.90625 
Q 8.203125 7.8125 5.859375 11.328125 
Q 10.9375 14.453125 15.03125 23.828125 
Q 19.140625 33.203125 21.09375 40.625 
L 18.359375 40.625 
Q 10.15625 40.625 4.296875 40.234375 
z
M 31.25 69.140625 
Q 37.890625 69.140625 46.09375 69.53125 
L 46.09375 62.109375 
Q 37.890625 62.5 31.25 62.5 
L 21.875 62.5 
Q 15.625 62.5 9.765625 62.109375 
L 9.765625 69.53125 
Q 15.234375 69.140625 21.484375 69.140625 
z
" id="SimHei-21160"/>
    </defs>
    <g transform="translate(200.16 35.472)scale(0.12 -0.12)">
     <use xlink:href="#SimHei-32929"/>
     <use x="100" xlink:href="#SimHei-31080"/>
     <use x="200" xlink:href="#SimHei-20215"/>
     <use x="300" xlink:href="#SimHei-26684"/>
     <use x="400" xlink:href="#SimHei-27874"/>
     <use x="500" xlink:href="#SimHei-21160"/>
    </g>
   </g>
   <g id="legend_1">
    <g id="patch_7">
     <path d="M 350.72 77.597 
L 407.72 77.597 
Q 409.72 77.597 409.72 75.597 
L 409.72 48.472 
Q 409.72 46.472 407.72 46.472 
L 350.72 46.472 
Q 348.72 46.472 348.72 48.472 
L 348.72 75.597 
Q 348.72 77.597 350.72 77.597 
z
" style="fill:#ffffff;opacity:0.8;stroke:#cccccc;stroke-linejoin:miter;"/>
    </g>
    <g id="line2d_15">
     <path d="M 352.72 54.7845 
L 372.72 54.7845 
" style="fill:none;stroke:#1f77b4;stroke-linecap:square;stroke-width:1.5;"/>
    </g>
    <g id="line2d_16">
     <g>
      <use style="fill:#1f77b4;stroke:#ff0000;stroke-linejoin:bevel;" x="362.72" xlink:href="#m97142fd18c" y="54.7845"/>
     </g>
    </g>
    <g id="text_28">
     <!-- 股票1 -->
     <g transform="translate(380.72 58.2845)scale(0.1 -0.1)">
      <use xlink:href="#SimHei-32929"/>
      <use x="100" xlink:href="#SimHei-31080"/>
      <use x="200" xlink:href="#SimHei-49"/>
     </g>
    </g>
    <g id="line2d_17">
     <path d="M 352.72 68.847 
L 372.72 68.847 
" style="fill:none;stroke:#ff7f0e;stroke-linecap:square;stroke-width:2;"/>
    </g>
    <g id="line2d_18">
     <g>
      <use style="fill:#ff7f0e;stroke:#0000ff;" x="362.72" xlink:href="#mf61f00a426" y="68.847"/>
     </g>
    </g>
    <g id="text_29">
     <!-- 股票2 -->
     <g transform="translate(380.72 72.347)scale(0.1 -0.1)">
      <use xlink:href="#SimHei-32929"/>
      <use x="100" xlink:href="#SimHei-31080"/>
      <use x="200" xlink:href="#SimHei-50"/>
     </g>
    </g>
   </g>
  </g>
 </g>
 <defs>
  <clipPath id="pe95e8e3eaa">
   <rect height="266.112" width="357.12" x="57.6" y="41.472"/>
  </clipPath>
 </defs>
</svg>
