<?xml version="1.0" encoding="utf-8" standalone="no"?>
<!DOCTYPE svg PUBLIC "-//W3C//DTD SVG 1.1//EN"
  "http://www.w3.org/Graphics/SVG/1.1/DTD/svg11.dtd">
<!-- Created with matplotlib (https://matplotlib.org/) -->
<svg height="345.6pt" version="1.1" viewBox="0 0 460.8 345.6" width="460.8pt" xmlns="http://www.w3.org/2000/svg" xmlns:xlink="http://www.w3.org/1999/xlink">
 <defs>
  <style type="text/css">
*{stroke-linecap:butt;stroke-linejoin:round;}
  </style>
 </defs>
 <g id="figure_1">
  <g id="patch_1">
   <path d="M 0 345.6 
L 460.8 345.6 
L 460.8 0 
L 0 0 
z
" style="fill:#ffffff;"/>
  </g>
  <g id="axes_1">
   <g id="patch_2">
    <path d="M 57.6 307.584 
L 414.72 307.584 
L 414.72 41.472 
L 57.6 41.472 
z
" style="fill:#ffffff;"/>
   </g>
   <g id="matplotlib.axis_1">
    <g id="xtick_1">
     <g id="line2d_1">
      <defs>
       <path d="M 0 0 
L 0 3.5 
" id="m5359cd61d1" style="stroke:#000000;stroke-width:0.8;"/>
      </defs>
      <g>
       <use style="stroke:#000000;stroke-width:0.8;" x="73.832727" xlink:href="#m5359cd61d1" y="307.584"/>
      </g>
     </g>
     <g id="text_1">
      <!-- 1 -->
      <defs>
       <path d="M 21.875 56.25 
Q 16.796875 51.171875 8.984375 46.484375 
L 8.984375 53.90625 
Q 18.75 60.546875 25 69.53125 
L 29.6875 69.53125 
L 29.6875 2.34375 
L 21.875 2.34375 
z
" id="SimHei-49"/>
      </defs>
      <g transform="translate(71.332727 321.459)scale(0.1 -0.1)">
       <use xlink:href="#SimHei-49"/>
      </g>
     </g>
    </g>
    <g id="xtick_2">
     <g id="line2d_2">
      <g>
       <use style="stroke:#000000;stroke-width:0.8;" x="127.941818" xlink:href="#m5359cd61d1" y="307.584"/>
      </g>
     </g>
     <g id="text_2">
      <!-- 2 -->
      <defs>
       <path d="M 4.6875 3.90625 
Q 5.078125 9.765625 10.15625 14.453125 
Q 15.234375 19.140625 23.046875 29.09375 
Q 30.859375 39.0625 33.203125 44.53125 
Q 35.546875 50 34.953125 53.90625 
Q 34.375 57.8125 31.25 60.34375 
Q 28.125 62.890625 24.015625 62.5 
Q 19.921875 62.109375 16.203125 59.375 
Q 12.5 56.640625 10.546875 51.171875 
L 3.125 52.34375 
Q 6.25 61.328125 11.125 65.421875 
Q 16.015625 69.53125 22.65625 69.921875 
Q 26.5625 70.3125 29.6875 69.71875 
Q 32.8125 69.140625 36.125 66.984375 
Q 39.453125 64.84375 41.59375 60.546875 
Q 43.75 56.25 43.15625 50.1875 
Q 42.578125 44.140625 37.109375 35.734375 
Q 31.640625 27.34375 16.015625 9.375 
L 44.140625 9.375 
L 44.140625 2.34375 
L 4.6875 2.34375 
z
" id="SimHei-50"/>
      </defs>
      <g transform="translate(125.441818 321.459)scale(0.1 -0.1)">
       <use xlink:href="#SimHei-50"/>
      </g>
     </g>
    </g>
    <g id="xtick_3">
     <g id="line2d_3">
      <g>
       <use style="stroke:#000000;stroke-width:0.8;" x="182.050909" xlink:href="#m5359cd61d1" y="307.584"/>
      </g>
     </g>
     <g id="text_3">
      <!-- 3 -->
      <defs>
       <path d="M 3.90625 19.140625 
L 10.9375 20.3125 
Q 12.5 15.234375 16.015625 11.90625 
Q 19.53125 8.59375 24.796875 8.78125 
Q 30.078125 8.984375 33.203125 13.078125 
Q 36.328125 17.1875 35.9375 22.453125 
Q 35.546875 27.734375 31.828125 30.65625 
Q 28.125 33.59375 19.921875 34.765625 
L 19.921875 39.84375 
Q 28.125 40.625 31.828125 44.140625 
Q 35.546875 47.65625 35.15625 53.3125 
Q 34.765625 58.984375 30.078125 61.515625 
Q 25.390625 64.0625 20.109375 62.109375 
Q 14.84375 60.15625 11.71875 51.171875 
L 4.6875 52.34375 
Q 7.03125 59.375 11.125 64.0625 
Q 15.234375 68.75 22.265625 69.53125 
Q 29.296875 70.3125 34.5625 67.765625 
Q 39.84375 65.234375 41.984375 59.953125 
Q 44.140625 54.6875 42.578125 48.4375 
Q 41.015625 42.1875 33.59375 37.5 
Q 39.0625 35.15625 41.984375 30.46875 
Q 44.921875 25.78125 43.9375 18.15625 
Q 42.96875 10.546875 37.109375 5.859375 
Q 31.25 1.171875 23.828125 1.359375 
Q 16.40625 1.5625 10.9375 6.046875 
Q 5.46875 10.546875 3.90625 19.140625 
z
" id="SimHei-51"/>
      </defs>
      <g transform="translate(179.550909 321.459)scale(0.1 -0.1)">
       <use xlink:href="#SimHei-51"/>
      </g>
     </g>
    </g>
    <g id="xtick_4">
     <g id="line2d_4">
      <g>
       <use style="stroke:#000000;stroke-width:0.8;" x="236.16" xlink:href="#m5359cd61d1" y="307.584"/>
      </g>
     </g>
     <g id="text_4">
      <!-- 4 -->
      <defs>
       <path d="M 31.25 17.1875 
L 1.171875 17.1875 
L 1.171875 23.828125 
L 32.8125 69.53125 
L 38.671875 69.53125 
L 38.671875 23.828125 
L 48.046875 23.828125 
L 48.046875 17.1875 
L 38.671875 17.1875 
L 38.671875 2.34375 
L 31.25 2.34375 
z
M 31.25 23.828125 
L 31.25 54.6875 
L 9.375 23.828125 
z
" id="SimHei-52"/>
      </defs>
      <g transform="translate(233.66 321.459)scale(0.1 -0.1)">
       <use xlink:href="#SimHei-52"/>
      </g>
     </g>
    </g>
    <g id="xtick_5">
     <g id="line2d_5">
      <g>
       <use style="stroke:#000000;stroke-width:0.8;" x="290.269091" xlink:href="#m5359cd61d1" y="307.584"/>
      </g>
     </g>
     <g id="text_5">
      <!-- 5 -->
      <defs>
       <path d="M 8.59375 20.703125 
Q 11.328125 10.15625 17.96875 8.984375 
Q 24.609375 7.8125 28.703125 10.34375 
Q 32.8125 12.890625 34.5625 16.984375 
Q 36.328125 21.09375 36.125 26.171875 
Q 35.9375 31.25 33.390625 34.765625 
Q 30.859375 38.28125 26.953125 39.453125 
Q 23.046875 40.625 18.15625 39.453125 
Q 13.28125 38.28125 10.15625 33.984375 
L 3.515625 34.765625 
Q 4.296875 37.109375 10.9375 68.359375 
L 41.796875 68.359375 
L 41.796875 61.328125 
L 16.796875 61.328125 
Q 14.84375 50.78125 12.890625 44.53125 
Q 18.75 47.265625 23.828125 47.0625 
Q 28.90625 46.875 33.59375 44.71875 
Q 38.28125 42.578125 40.421875 38.859375 
Q 42.578125 35.15625 43.546875 31.4375 
Q 44.53125 27.734375 44.328125 23.4375 
Q 44.140625 19.140625 42.578125 14.640625 
Q 41.015625 10.15625 37.890625 7.21875 
Q 34.765625 4.296875 30.265625 2.53125 
Q 25.78125 0.78125 19.921875 1.171875 
Q 14.0625 1.5625 8.78125 5.46875 
Q 3.515625 9.375 1.5625 18.75 
z
" id="SimHei-53"/>
      </defs>
      <g transform="translate(287.769091 321.459)scale(0.1 -0.1)">
       <use xlink:href="#SimHei-53"/>
      </g>
     </g>
    </g>
    <g id="xtick_6">
     <g id="line2d_6">
      <g>
       <use style="stroke:#000000;stroke-width:0.8;" x="344.378182" xlink:href="#m5359cd61d1" y="307.584"/>
      </g>
     </g>
     <g id="text_6">
      <!-- 6 -->
      <defs>
       <path d="M 3.515625 19.53125 
Q 4.296875 30.859375 6.046875 34.765625 
Q 7.8125 38.671875 11.328125 44.53125 
L 27.34375 69.53125 
L 36.328125 69.53125 
L 19.921875 43.75 
Q 30.46875 46.484375 36.71875 42.96875 
Q 42.96875 39.453125 45.109375 34.953125 
Q 47.265625 30.46875 47.453125 25.1875 
Q 47.65625 19.921875 45.890625 14.84375 
Q 44.140625 9.765625 39.640625 5.65625 
Q 35.15625 1.5625 27.140625 1.171875 
Q 19.140625 0.78125 13.46875 4.09375 
Q 7.8125 7.421875 5.65625 13.46875 
Q 3.515625 19.53125 4.296875 30.859375 
z
M 12.5 16.015625 
Q 19.53125 8.59375 25.390625 8.203125 
Q 31.25 7.8125 35.15625 12.109375 
Q 39.0625 16.40625 39.0625 24.609375 
Q 39.0625 32.8125 34.171875 35.9375 
Q 29.296875 39.0625 23.234375 38.28125 
Q 17.1875 37.5 14.453125 32.421875 
Q 11.71875 27.34375 12.109375 21.671875 
Q 12.5 16.015625 19.53125 8.59375 
z
" id="SimHei-54"/>
      </defs>
      <g transform="translate(341.878182 321.459)scale(0.1 -0.1)">
       <use xlink:href="#SimHei-54"/>
      </g>
     </g>
    </g>
    <g id="xtick_7">
     <g id="line2d_7">
      <g>
       <use style="stroke:#000000;stroke-width:0.8;" x="398.487273" xlink:href="#m5359cd61d1" y="307.584"/>
      </g>
     </g>
     <g id="text_7">
      <!-- 7 -->
      <defs>
       <path d="M 13.28125 2.34375 
Q 20.3125 32.03125 37.890625 61.328125 
L 4.296875 61.328125 
L 4.296875 68.359375 
L 46.09375 68.359375 
L 46.09375 61.71875 
Q 27.734375 32.03125 21.875 2.34375 
L 13.28125 2.34375 
z
" id="SimHei-55"/>
      </defs>
      <g transform="translate(395.987273 321.459)scale(0.1 -0.1)">
       <use xlink:href="#SimHei-55"/>
      </g>
     </g>
    </g>
    <g id="text_8">
     <!-- alp -->
     <defs>
      <path d="M 44.921875 1.953125 
L 35.546875 1.953125 
Q 34.765625 2.734375 34.375 4.09375 
Q 33.984375 5.46875 33.984375 7.421875 
Q 31.25 4.296875 27.34375 2.734375 
Q 23.4375 1.171875 19.140625 1.171875 
Q 12.890625 1.171875 8.59375 4.296875 
Q 4.296875 7.421875 4.296875 13.28125 
Q 4.296875 19.140625 8.203125 22.65625 
Q 12.109375 26.171875 20.3125 27.34375 
Q 25.78125 28.125 29.875 29.296875 
Q 33.984375 30.46875 33.984375 32.421875 
Q 33.984375 34.765625 32.21875 37.109375 
Q 30.46875 39.453125 24.609375 39.453125 
Q 19.921875 39.453125 17.765625 37.6875 
Q 15.625 35.9375 14.84375 32.8125 
L 6.25 32.8125 
Q 7.03125 39.0625 11.90625 42.765625 
Q 16.796875 46.484375 24.609375 46.484375 
Q 33.203125 46.484375 37.5 42.578125 
Q 41.796875 38.671875 41.796875 31.640625 
L 41.796875 10.15625 
Q 41.796875 7.8125 42.578125 5.859375 
Q 43.359375 3.90625 44.921875 1.953125 
z
M 33.984375 16.40625 
L 33.984375 24.21875 
Q 31.640625 23.4375 29.484375 22.84375 
Q 27.34375 22.265625 22.265625 21.484375 
Q 16.40625 20.703125 14.640625 18.75 
Q 12.890625 16.796875 12.890625 14.0625 
Q 12.890625 11.71875 14.640625 9.953125 
Q 16.40625 8.203125 19.921875 8.203125 
Q 23.4375 8.203125 27.53125 10.15625 
Q 31.640625 12.109375 33.984375 16.40625 
z
" id="SimHei-97"/>
      <path d="M 28.515625 1.953125 
L 20.703125 1.953125 
L 20.703125 68.75 
L 28.515625 68.75 
z
" id="SimHei-108"/>
      <path d="M 44.140625 23.828125 
Q 44.140625 12.5 38.671875 6.640625 
Q 33.203125 0.78125 25.390625 0.78125 
Q 21.09375 0.78125 17.96875 2.53125 
Q 14.84375 4.296875 12.5 7.8125 
L 12.5 -12.5 
L 4.6875 -12.5 
L 4.6875 45.703125 
L 12.5 45.703125 
L 12.5 39.84375 
Q 14.84375 43.359375 17.96875 44.921875 
Q 21.09375 46.484375 25.390625 46.484375 
Q 33.203125 46.484375 38.671875 40.8125 
Q 44.140625 35.15625 44.140625 23.828125 
z
M 35.546875 23.828125 
Q 35.546875 31.25 32.609375 35.34375 
Q 29.6875 39.453125 23.828125 39.453125 
Q 19.140625 39.453125 15.8125 35.34375 
Q 12.5 31.25 12.5 23.828125 
Q 12.5 16.40625 15.8125 12.109375 
Q 19.140625 7.8125 23.828125 7.8125 
Q 29.6875 7.8125 32.609375 12.109375 
Q 35.546875 16.40625 35.546875 23.828125 
z
" id="SimHei-112"/>
     </defs>
     <g transform="translate(228.66 333.584)scale(0.1 -0.1)">
      <use xlink:href="#SimHei-97"/>
      <use x="50" xlink:href="#SimHei-108"/>
      <use x="100" xlink:href="#SimHei-112"/>
     </g>
    </g>
   </g>
   <g id="matplotlib.axis_2">
    <g id="ytick_1">
     <g id="line2d_8">
      <defs>
       <path d="M 0 0 
L -3.5 0 
" id="mafeec29aea" style="stroke:#000000;stroke-width:0.8;"/>
      </defs>
      <g>
       <use style="stroke:#000000;stroke-width:0.8;" x="57.6" xlink:href="#mafeec29aea" y="307.584"/>
      </g>
     </g>
     <g id="text_9">
      <!-- 600 -->
      <defs>
       <path d="M 3.125 29.296875 
Q 3.90625 50 6.4375 56.046875 
Q 8.984375 62.109375 13.671875 66.015625 
Q 18.359375 69.921875 25.1875 69.921875 
Q 32.03125 69.921875 37.109375 64.25 
Q 42.1875 58.59375 43.75 50 
Q 45.3125 41.40625 44.71875 30.265625 
Q 44.140625 19.140625 40.8125 12.109375 
Q 37.5 5.078125 30.859375 2.34375 
Q 24.21875 -0.390625 17.578125 2.921875 
Q 10.9375 6.25 8.203125 11.71875 
Q 5.46875 17.1875 4.296875 23.234375 
Q 3.125 29.296875 3.90625 50 
z
M 12.890625 52.734375 
Q 10.546875 31.25 12.5 22.84375 
Q 14.453125 14.453125 18.9375 10.9375 
Q 23.4375 7.421875 28.125 9.5625 
Q 32.8125 11.71875 34.953125 18.15625 
Q 37.109375 24.609375 37.109375 32.21875 
Q 37.109375 39.84375 36.515625 46.09375 
Q 35.9375 52.34375 33 57.421875 
Q 30.078125 62.5 25.1875 62.6875 
Q 20.3125 62.890625 16.59375 57.8125 
Q 12.890625 52.734375 10.546875 31.25 
z
" id="SimHei-48"/>
      </defs>
      <g transform="translate(35.6 311.0215)scale(0.1 -0.1)">
       <use xlink:href="#SimHei-54"/>
       <use x="50" xlink:href="#SimHei-48"/>
       <use x="100" xlink:href="#SimHei-48"/>
      </g>
     </g>
    </g>
    <g id="ytick_2">
     <g id="line2d_9">
      <g>
       <use style="stroke:#000000;stroke-width:0.8;" x="57.6" xlink:href="#mafeec29aea" y="269.568"/>
      </g>
     </g>
     <g id="text_10">
      <!-- 650 -->
      <g transform="translate(35.6 273.0055)scale(0.1 -0.1)">
       <use xlink:href="#SimHei-54"/>
       <use x="50" xlink:href="#SimHei-53"/>
       <use x="100" xlink:href="#SimHei-48"/>
      </g>
     </g>
    </g>
    <g id="ytick_3">
     <g id="line2d_10">
      <g>
       <use style="stroke:#000000;stroke-width:0.8;" x="57.6" xlink:href="#mafeec29aea" y="231.552"/>
      </g>
     </g>
     <g id="text_11">
      <!-- 700 -->
      <g transform="translate(35.6 234.9895)scale(0.1 -0.1)">
       <use xlink:href="#SimHei-55"/>
       <use x="50" xlink:href="#SimHei-48"/>
       <use x="100" xlink:href="#SimHei-48"/>
      </g>
     </g>
    </g>
    <g id="ytick_4">
     <g id="line2d_11">
      <g>
       <use style="stroke:#000000;stroke-width:0.8;" x="57.6" xlink:href="#mafeec29aea" y="193.536"/>
      </g>
     </g>
     <g id="text_12">
      <!-- 750 -->
      <g transform="translate(35.6 196.9735)scale(0.1 -0.1)">
       <use xlink:href="#SimHei-55"/>
       <use x="50" xlink:href="#SimHei-53"/>
       <use x="100" xlink:href="#SimHei-48"/>
      </g>
     </g>
    </g>
    <g id="ytick_5">
     <g id="line2d_12">
      <g>
       <use style="stroke:#000000;stroke-width:0.8;" x="57.6" xlink:href="#mafeec29aea" y="155.52"/>
      </g>
     </g>
     <g id="text_13">
      <!-- 800 -->
      <defs>
       <path d="M 2.734375 16.796875 
Q 2.734375 26.171875 5.078125 30.65625 
Q 7.421875 35.15625 12.890625 37.890625 
Q 8.203125 40.625 6.640625 43.9375 
Q 5.078125 47.265625 4.875 51.5625 
Q 4.6875 55.859375 6.046875 58.984375 
Q 7.421875 62.109375 10.15625 64.84375 
Q 12.890625 67.578125 16.203125 68.546875 
Q 19.53125 69.53125 23.4375 69.53125 
Q 27.34375 69.53125 30.46875 68.75 
Q 33.59375 67.96875 37.109375 65.421875 
Q 40.625 62.890625 42.1875 58.203125 
Q 43.75 53.515625 41.984375 47.265625 
Q 40.234375 41.015625 32.8125 37.5 
Q 39.453125 35.546875 42.1875 31.4375 
Q 44.921875 27.34375 44.921875 21.484375 
Q 44.921875 15.625 43.15625 12.109375 
Q 41.40625 8.59375 39.25 6.25 
Q 37.109375 3.90625 33.390625 2.53125 
Q 29.6875 1.171875 24.015625 1.171875 
Q 18.359375 1.171875 14.25 2.53125 
Q 10.15625 3.90625 7.421875 6.640625 
Q 4.6875 9.375 3.703125 13.078125 
Q 2.734375 16.796875 2.734375 26.171875 
z
M 10.9375 26.5625 
Q 10.546875 17.1875 12.296875 13.671875 
Q 14.0625 10.15625 18.75 9.171875 
Q 23.4375 8.203125 28.515625 9.375 
Q 33.59375 10.546875 35.546875 14.84375 
Q 37.5 19.140625 36.90625 23.4375 
Q 36.328125 27.734375 32.03125 30.65625 
Q 27.734375 33.59375 22.65625 33.203125 
Q 17.578125 32.8125 14.25 29.6875 
Q 10.9375 26.5625 10.546875 17.1875 
z
M 12.109375 56.25 
Q 12.109375 48.4375 14.84375 44.921875 
Q 17.578125 41.40625 23.4375 41.40625 
Q 29.296875 41.40625 32.21875 44.921875 
Q 35.15625 48.4375 34.953125 53.3125 
Q 34.765625 58.203125 31.4375 60.546875 
Q 28.125 62.890625 22.453125 62.5 
Q 16.796875 62.109375 14.453125 59.171875 
Q 12.109375 56.25 12.109375 48.4375 
z
" id="SimHei-56"/>
      </defs>
      <g transform="translate(35.6 158.9575)scale(0.1 -0.1)">
       <use xlink:href="#SimHei-56"/>
       <use x="50" xlink:href="#SimHei-48"/>
       <use x="100" xlink:href="#SimHei-48"/>
      </g>
     </g>
    </g>
    <g id="ytick_6">
     <g id="line2d_13">
      <g>
       <use style="stroke:#000000;stroke-width:0.8;" x="57.6" xlink:href="#mafeec29aea" y="117.504"/>
      </g>
     </g>
     <g id="text_14">
      <!-- 850 -->
      <g transform="translate(35.6 120.9415)scale(0.1 -0.1)">
       <use xlink:href="#SimHei-56"/>
       <use x="50" xlink:href="#SimHei-53"/>
       <use x="100" xlink:href="#SimHei-48"/>
      </g>
     </g>
    </g>
    <g id="ytick_7">
     <g id="line2d_14">
      <g>
       <use style="stroke:#000000;stroke-width:0.8;" x="57.6" xlink:href="#mafeec29aea" y="79.488"/>
      </g>
     </g>
     <g id="text_15">
      <!-- 900 -->
      <defs>
       <path d="M 12.5 1.171875 
Q 21.09375 15.625 26.5625 27.34375 
Q 16.796875 25.78125 10.34375 29.875 
Q 3.90625 33.984375 2.53125 41.015625 
Q 1.171875 48.046875 2.734375 53.703125 
Q 4.296875 59.375 7.609375 63.078125 
Q 10.9375 66.796875 15.625 68.359375 
Q 20.3125 69.921875 24.015625 69.921875 
Q 27.734375 69.921875 31.640625 68.359375 
Q 35.546875 66.796875 38.671875 63.671875 
Q 41.796875 60.546875 42.96875 57.21875 
Q 44.140625 53.90625 44.140625 48.625 
Q 44.140625 43.359375 40.234375 35.15625 
Q 36.328125 26.953125 21.09375 1.171875 
z
M 9.765625 50 
Q 10.9375 39.84375 14.640625 36.515625 
Q 18.359375 33.203125 22.65625 33.59375 
Q 26.953125 33.984375 29.484375 35.9375 
Q 32.03125 37.890625 34.375 42.578125 
Q 35.9375 48.4375 35.15625 52.53125 
Q 34.375 56.640625 31.046875 59.375 
Q 27.734375 62.109375 23.828125 62.109375 
Q 21.484375 62.5 17.765625 60.9375 
Q 14.0625 59.375 11.90625 54.6875 
Q 9.765625 50 10.9375 39.84375 
z
" id="SimHei-57"/>
      </defs>
      <g transform="translate(35.6 82.9255)scale(0.1 -0.1)">
       <use xlink:href="#SimHei-57"/>
       <use x="50" xlink:href="#SimHei-48"/>
       <use x="100" xlink:href="#SimHei-48"/>
      </g>
     </g>
    </g>
    <g id="ytick_8">
     <g id="line2d_15">
      <g>
       <use style="stroke:#000000;stroke-width:0.8;" x="57.6" xlink:href="#mafeec29aea" y="41.472"/>
      </g>
     </g>
     <g id="text_16">
      <!-- 950 -->
      <g transform="translate(35.6 44.9095)scale(0.1 -0.1)">
       <use xlink:href="#SimHei-57"/>
       <use x="50" xlink:href="#SimHei-53"/>
       <use x="100" xlink:href="#SimHei-48"/>
      </g>
     </g>
    </g>
    <g id="text_17">
     <!-- RMSE -->
     <defs>
      <path d="M 46.875 1.953125 
L 37.5 1.953125 
L 23.4375 30.859375 
L 13.28125 30.859375 
L 13.28125 1.953125 
L 4.296875 1.953125 
L 4.296875 68.75 
L 23.828125 68.75 
Q 33.203125 68.75 39.0625 64.25 
Q 44.921875 59.765625 44.921875 49.609375 
Q 44.921875 41.796875 41.015625 37.5 
Q 37.109375 33.203125 32.03125 32.03125 
z
M 35.9375 49.609375 
Q 35.9375 55.078125 32.609375 58.203125 
Q 29.296875 61.328125 21.875 61.328125 
L 13.28125 61.328125 
L 13.28125 38.28125 
L 24.21875 38.28125 
Q 28.90625 38.28125 32.421875 40.8125 
Q 35.9375 43.359375 35.9375 49.609375 
z
" id="SimHei-82"/>
      <path d="M 45.703125 1.953125 
L 37.890625 1.953125 
L 37.890625 49.609375 
L 37.109375 49.609375 
L 27.734375 1.953125 
L 21.484375 1.953125 
L 12.109375 49.609375 
L 11.328125 49.609375 
L 11.328125 1.953125 
L 3.515625 1.953125 
L 3.515625 68.75 
L 15.625 68.75 
L 24.21875 24.609375 
L 25 24.609375 
L 33.59375 68.75 
L 45.703125 68.75 
z
" id="SimHei-77"/>
      <path d="M 45.3125 20.703125 
Q 45.3125 11.71875 39.640625 6.4375 
Q 33.984375 1.171875 24.21875 1.171875 
Q 14.453125 1.171875 8.984375 6.640625 
Q 3.515625 12.109375 3.515625 20.3125 
L 3.515625 23.046875 
L 12.5 23.046875 
L 12.5 20.703125 
Q 12.5 14.84375 16.015625 11.71875 
Q 19.53125 8.59375 24.21875 8.59375 
Q 30.46875 8.59375 33.390625 11.90625 
Q 36.328125 15.234375 36.328125 19.921875 
Q 36.328125 23.828125 32.8125 27.140625 
Q 29.296875 30.46875 22.65625 33.203125 
Q 13.28125 36.71875 9.171875 41.015625 
Q 5.078125 45.3125 5.078125 51.171875 
Q 5.078125 59.375 10.734375 64.453125 
Q 16.40625 69.53125 24.21875 69.53125 
Q 34.375 69.53125 38.859375 63.46875 
Q 43.359375 57.421875 43.359375 50.390625 
L 34.375 50.390625 
Q 34.765625 54.6875 32.03125 58.203125 
Q 29.296875 61.71875 24.21875 61.71875 
Q 19.53125 61.71875 16.796875 59.171875 
Q 14.0625 56.640625 14.0625 52.34375 
Q 14.0625 48.828125 16.203125 46.28125 
Q 18.359375 43.75 27.34375 40.234375 
Q 35.9375 36.71875 40.625 31.828125 
Q 45.3125 26.953125 45.3125 20.703125 
z
" id="SimHei-83"/>
      <path d="M 45.3125 1.953125 
L 5.46875 1.953125 
L 5.46875 68.75 
L 43.359375 68.75 
L 43.359375 61.328125 
L 14.453125 61.328125 
L 14.453125 40.625 
L 41.015625 40.625 
L 41.015625 33.203125 
L 14.453125 33.203125 
L 14.453125 9.375 
L 45.3125 9.375 
z
" id="SimHei-69"/>
     </defs>
     <g transform="translate(30.35 184.528)rotate(-90)scale(0.1 -0.1)">
      <use xlink:href="#SimHei-82"/>
      <use x="50" xlink:href="#SimHei-77"/>
      <use x="100" xlink:href="#SimHei-83"/>
      <use x="150" xlink:href="#SimHei-69"/>
     </g>
    </g>
   </g>
   <g id="line2d_16">
    <path clip-path="url(#pa31c217d88)" d="M 73.832727 258.382615 
L 127.941818 255.104084 
L 182.050909 250.549888 
L 236.16 254.946374 
L 290.269091 281.406657 
L 344.378182 282.947282 
L 398.487273 271.788177 
" style="fill:none;stroke:#1f77b4;stroke-linecap:square;stroke-width:1.5;"/>
    <defs>
     <path d="M 0 -3 
L -0.673542 -0.927051 
L -2.85317 -0.927051 
L -1.089814 0.354102 
L -1.763356 2.427051 
L -0 1.145898 
L 1.763356 2.427051 
L 1.089814 0.354102 
L 2.85317 -0.927051 
L 0.673542 -0.927051 
z
" id="me20ebfbbee" style="stroke:#ff0000;stroke-linejoin:bevel;"/>
    </defs>
    <g clip-path="url(#pa31c217d88)">
     <use style="fill:#1f77b4;stroke:#ff0000;stroke-linejoin:bevel;" x="73.832727" xlink:href="#me20ebfbbee" y="258.382615"/>
     <use style="fill:#1f77b4;stroke:#ff0000;stroke-linejoin:bevel;" x="127.941818" xlink:href="#me20ebfbbee" y="255.104084"/>
     <use style="fill:#1f77b4;stroke:#ff0000;stroke-linejoin:bevel;" x="182.050909" xlink:href="#me20ebfbbee" y="250.549888"/>
     <use style="fill:#1f77b4;stroke:#ff0000;stroke-linejoin:bevel;" x="236.16" xlink:href="#me20ebfbbee" y="254.946374"/>
     <use style="fill:#1f77b4;stroke:#ff0000;stroke-linejoin:bevel;" x="290.269091" xlink:href="#me20ebfbbee" y="281.406657"/>
     <use style="fill:#1f77b4;stroke:#ff0000;stroke-linejoin:bevel;" x="344.378182" xlink:href="#me20ebfbbee" y="282.947282"/>
     <use style="fill:#1f77b4;stroke:#ff0000;stroke-linejoin:bevel;" x="398.487273" xlink:href="#me20ebfbbee" y="271.788177"/>
    </g>
   </g>
   <g id="line2d_17">
    <path clip-path="url(#pa31c217d88)" d="M 73.832727 87.055248 
L 127.941818 87.055248 
L 182.050909 87.055248 
L 236.16 87.055248 
L 290.269091 87.055248 
L 344.378182 87.055248 
L 398.487273 87.055248 
" style="fill:none;stroke:#ff7f0e;stroke-linecap:square;stroke-width:1.5;"/>
   </g>
   <g id="patch_3">
    <path d="M 57.6 307.584 
L 57.6 41.472 
" style="fill:none;stroke:#000000;stroke-linecap:square;stroke-linejoin:miter;stroke-width:0.8;"/>
   </g>
   <g id="patch_4">
    <path d="M 414.72 307.584 
L 414.72 41.472 
" style="fill:none;stroke:#000000;stroke-linecap:square;stroke-linejoin:miter;stroke-width:0.8;"/>
   </g>
   <g id="patch_5">
    <path d="M 57.6 307.584 
L 414.72 307.584 
" style="fill:none;stroke:#000000;stroke-linecap:square;stroke-linejoin:miter;stroke-width:0.8;"/>
   </g>
   <g id="patch_6">
    <path d="M 57.6 41.472 
L 414.72 41.472 
" style="fill:none;stroke:#000000;stroke-linecap:square;stroke-linejoin:miter;stroke-width:0.8;"/>
   </g>
   <g id="text_18">
    <!-- 664.71 -->
    <defs>
     <path d="M 16.796875 1.953125 
L 7.8125 1.953125 
L 7.8125 10.546875 
L 16.796875 10.546875 
z
" id="SimHei-46"/>
    </defs>
    <g transform="translate(58.832727 255.341335)scale(0.1 -0.1)">
     <use xlink:href="#SimHei-54"/>
     <use x="50" xlink:href="#SimHei-54"/>
     <use x="100" xlink:href="#SimHei-52"/>
     <use x="150" xlink:href="#SimHei-46"/>
     <use x="200" xlink:href="#SimHei-55"/>
     <use x="250" xlink:href="#SimHei-49"/>
    </g>
   </g>
   <g id="text_19">
    <!-- 669.02 -->
    <g transform="translate(112.941818 252.062804)scale(0.1 -0.1)">
     <use xlink:href="#SimHei-54"/>
     <use x="50" xlink:href="#SimHei-54"/>
     <use x="100" xlink:href="#SimHei-57"/>
     <use x="150" xlink:href="#SimHei-46"/>
     <use x="200" xlink:href="#SimHei-48"/>
     <use x="250" xlink:href="#SimHei-50"/>
    </g>
   </g>
   <g id="text_20">
    <!-- 675.01 -->
    <g transform="translate(167.050909 247.508608)scale(0.1 -0.1)">
     <use xlink:href="#SimHei-54"/>
     <use x="50" xlink:href="#SimHei-55"/>
     <use x="100" xlink:href="#SimHei-53"/>
     <use x="150" xlink:href="#SimHei-46"/>
     <use x="200" xlink:href="#SimHei-48"/>
     <use x="250" xlink:href="#SimHei-49"/>
    </g>
   </g>
   <g id="text_21">
    <!-- 669.23 -->
    <g transform="translate(221.16 251.905094)scale(0.1 -0.1)">
     <use xlink:href="#SimHei-54"/>
     <use x="50" xlink:href="#SimHei-54"/>
     <use x="100" xlink:href="#SimHei-57"/>
     <use x="150" xlink:href="#SimHei-46"/>
     <use x="200" xlink:href="#SimHei-50"/>
     <use x="250" xlink:href="#SimHei-51"/>
    </g>
   </g>
   <g id="text_22">
    <!-- 634.43 -->
    <g transform="translate(275.269091 278.365377)scale(0.1 -0.1)">
     <use xlink:href="#SimHei-54"/>
     <use x="50" xlink:href="#SimHei-51"/>
     <use x="100" xlink:href="#SimHei-52"/>
     <use x="150" xlink:href="#SimHei-46"/>
     <use x="200" xlink:href="#SimHei-52"/>
     <use x="250" xlink:href="#SimHei-51"/>
    </g>
   </g>
   <g id="text_23">
    <!-- 632.40 -->
    <g transform="translate(329.378182 279.906002)scale(0.1 -0.1)">
     <use xlink:href="#SimHei-54"/>
     <use x="50" xlink:href="#SimHei-51"/>
     <use x="100" xlink:href="#SimHei-50"/>
     <use x="150" xlink:href="#SimHei-46"/>
     <use x="200" xlink:href="#SimHei-52"/>
     <use x="250" xlink:href="#SimHei-48"/>
    </g>
   </g>
   <g id="text_24">
    <!-- 647.08 -->
    <g transform="translate(383.487273 268.746897)scale(0.1 -0.1)">
     <use xlink:href="#SimHei-54"/>
     <use x="50" xlink:href="#SimHei-52"/>
     <use x="100" xlink:href="#SimHei-55"/>
     <use x="150" xlink:href="#SimHei-46"/>
     <use x="200" xlink:href="#SimHei-48"/>
     <use x="250" xlink:href="#SimHei-56"/>
    </g>
   </g>
   <g id="text_25">
    <!-- RMSE随alp变化趋势 -->
    <defs>
     <path d="M 63.28125 69.140625 
Q 67.578125 78.515625 67.96875 82.8125 
Q 73.046875 80.46875 77.34375 79.296875 
Q 75.390625 76.953125 70.703125 68.75 
L 83.59375 68.75 
Q 89.453125 68.75 94.921875 69.140625 
L 94.921875 62.5 
Q 90.234375 62.890625 83.59375 62.890625 
L 68.75 62.890625 
Q 65.625 57.421875 62.109375 52.34375 
L 90.625 52.34375 
Q 90.234375 46.875 90.234375 39.453125 
L 90.234375 13.28125 
Q 90.234375 9.375 87.6875 8.203125 
Q 85.15625 7.03125 78.90625 5.859375 
Q 78.515625 9.375 76.5625 13.28125 
Q 83.59375 12.109375 82.8125 19.53125 
L 65.234375 19.53125 
L 65.234375 6.640625 
L 57.8125 6.640625 
Q 58.203125 12.109375 58.203125 18.75 
L 58.203125 46.875 
L 55.46875 42.578125 
Q 52.34375 45.3125 48.828125 46.875 
Q 55.078125 52.34375 60.546875 62.890625 
Q 57.421875 62.890625 51.953125 62.5 
L 51.953125 69.53125 
Q 57.421875 69.140625 63.28125 69.140625 
z
M 34.765625 76.5625 
Q 33.203125 73.828125 24.609375 45.703125 
Q 29.296875 39.453125 31.828125 33.59375 
Q 34.375 27.734375 34.171875 22.84375 
Q 33.984375 17.96875 29.6875 14.640625 
Q 25.390625 11.328125 20.703125 10.15625 
Q 19.921875 13.671875 16.796875 18.75 
Q 23.4375 18.75 25.1875 21.09375 
Q 26.953125 23.4375 25.390625 29.6875 
Q 23.828125 35.9375 16.796875 44.921875 
Q 23.046875 62.890625 24.609375 71.09375 
L 13.671875 71.09375 
L 13.671875 -9.765625 
L 6.25 -9.765625 
Q 6.640625 0 6.640625 10.546875 
L 6.640625 59.375 
Q 6.640625 69.140625 6.25 76.5625 
L 34.765625 76.5625 
z
M 48.4375 44.140625 
Q 48.046875 38.671875 48.046875 32.03125 
L 48.046875 8.203125 
Q 48.828125 4.6875 58.59375 2.734375 
Q 68.359375 0.78125 74.796875 0.578125 
Q 81.25 0.390625 85.9375 0.578125 
Q 90.625 0.78125 96.484375 1.953125 
Q 94.140625 -2.34375 94.140625 -6.640625 
Q 83.59375 -6.640625 75.578125 -6.046875 
Q 67.578125 -5.46875 61.125 -4.09375 
Q 54.6875 -2.734375 50 -0.390625 
Q 45.3125 1.953125 42.765625 -0.1875 
Q 40.234375 -2.34375 35.9375 -7.421875 
Q 33.59375 -4.296875 30.46875 -1.953125 
Q 35.546875 2.734375 41.015625 6.25 
L 41.015625 37.890625 
L 33.984375 37.890625 
L 33.984375 44.53125 
Q 37.890625 44.140625 48.4375 44.140625 
z
M 82.8125 25 
L 82.8125 33.203125 
L 65.234375 33.203125 
L 65.234375 25 
z
M 82.8125 38.671875 
L 82.8125 46.875 
L 65.234375 46.875 
L 65.234375 38.671875 
z
M 42.96875 71.484375 
Q 46.484375 62.5 48.828125 53.515625 
Q 44.921875 53.125 41.015625 51.171875 
Q 39.0625 60.9375 35.546875 69.140625 
Q 39.453125 69.921875 42.96875 71.484375 
z
" id="SimHei-38543"/>
     <path d="M 81.25 30.859375 
Q 77.34375 25 70.890625 17.765625 
Q 64.453125 10.546875 57.421875 5.859375 
Q 61.328125 3.515625 71.875 1.359375 
Q 82.421875 -0.78125 93.75 -1.171875 
Q 89.0625 -6.25 88.28125 -9.765625 
Q 75.78125 -8.203125 65.8125 -4.875 
Q 55.859375 -1.5625 50.390625 1.953125 
Q 43.75 -1.953125 33.59375 -5.078125 
Q 23.4375 -8.203125 10.9375 -10.546875 
Q 9.375 -6.640625 6.25 -2.734375 
Q 14.84375 -2.34375 26.359375 0.1875 
Q 37.890625 2.734375 44.140625 5.859375 
Q 35.546875 12.109375 26.171875 24.609375 
Q 21.09375 24.609375 15.625 24.21875 
L 15.625 31.25 
Q 22.65625 30.859375 32.421875 30.859375 
z
M 50.390625 82.421875 
Q 53.125 76.5625 55.46875 69.921875 
L 73.046875 69.921875 
Q 84.375 69.921875 93.359375 70.3125 
L 93.359375 62.890625 
Q 83.984375 63.28125 73.828125 63.28125 
L 64.453125 63.28125 
L 64.453125 46.09375 
Q 64.453125 39.84375 64.84375 33.59375 
L 56.25 33.59375 
Q 56.640625 39.84375 56.640625 46.09375 
L 56.640625 63.28125 
L 42.96875 63.28125 
L 42.96875 46.09375 
Q 42.96875 41.796875 43.359375 33.59375 
L 34.765625 33.59375 
Q 35.15625 41.796875 35.15625 46.09375 
L 35.15625 63.28125 
L 26.5625 63.28125 
Q 15.234375 63.28125 6.640625 62.890625 
L 6.640625 70.3125 
Q 14.84375 69.921875 26.5625 69.921875 
L 46.484375 69.921875 
Q 45.703125 73.046875 42.1875 80.078125 
Q 46.09375 80.46875 50.390625 82.421875 
z
M 34.375 24.609375 
Q 41.40625 15.234375 50.78125 9.375 
Q 60.15625 15.625 66.796875 24.609375 
L 34.375 24.609375 
z
M 75.78125 58.59375 
Q 83.984375 51.171875 92.96875 41.796875 
Q 89.84375 39.453125 85.9375 35.9375 
Q 79.296875 43.75 69.53125 53.125 
Q 73.046875 55.859375 75.78125 58.59375 
z
M 28.515625 54.6875 
Q 26.5625 52.734375 22.265625 47.265625 
Q 17.96875 41.796875 12.890625 35.9375 
Q 8.984375 38.671875 5.859375 40.625 
Q 15.234375 49.21875 20.3125 59.765625 
Q 23.828125 57.03125 28.515625 54.6875 
z
" id="SimHei-21464"/>
     <path d="M 61.328125 78.515625 
Q 60.9375 76.5625 60.9375 68.75 
L 60.9375 41.015625 
Q 68.359375 47.265625 74.609375 53.90625 
Q 80.859375 60.546875 84.375 67.1875 
Q 87.5 64.0625 92.1875 61.328125 
Q 89.0625 57.8125 81.640625 50.1875 
Q 74.21875 42.578125 70.109375 39.25 
Q 66.015625 35.9375 60.9375 31.640625 
L 60.9375 7.03125 
Q 60.9375 0.78125 66.015625 0.78125 
L 81.25 0.78125 
Q 84.375 1.171875 85.34375 4.09375 
Q 86.328125 7.03125 87.109375 13.28125 
Q 90.625 10.15625 96.09375 9.375 
Q 93.75 -1.5625 91.015625 -3.90625 
Q 88.28125 -6.25 83.59375 -6.25 
L 61.71875 -6.25 
Q 53.515625 -6.25 53.125 3.125 
L 53.125 26.171875 
Q 50.390625 23.828125 46.28125 21.09375 
Q 42.1875 18.359375 37.109375 15.234375 
Q 34.765625 19.140625 31.640625 21.875 
Q 36.71875 24.21875 42.765625 27.921875 
Q 48.828125 31.640625 53.125 35.15625 
L 53.125 70.3125 
Q 53.125 75 52.734375 78.515625 
L 61.328125 78.515625 
z
M 37.5 75.78125 
Q 33.984375 71.09375 32.421875 67.765625 
Q 30.859375 64.453125 28.515625 58.984375 
L 28.515625 10.546875 
Q 28.515625 -1.171875 28.90625 -8.59375 
L 20.703125 -8.59375 
Q 21.09375 -1.953125 21.09375 10.15625 
L 21.09375 47.65625 
Q 17.578125 42.578125 15.03125 39.453125 
Q 12.5 36.328125 10.546875 33.984375 
Q 7.8125 37.109375 4.296875 39.453125 
Q 9.765625 44.53125 13.671875 50.1875 
Q 17.578125 55.859375 20.5 61.125 
Q 23.4375 66.40625 25.390625 71.484375 
Q 27.34375 76.5625 28.515625 79.6875 
Q 30.859375 77.734375 37.5 75.78125 
z
" id="SimHei-21270"/>
     <path d="M 93.75 -7.8125 
Q 77.34375 -8.203125 66.203125 -7.8125 
Q 55.078125 -7.421875 46.09375 -5.46875 
Q 37.109375 -3.515625 30.46875 0.390625 
Q 23.828125 4.296875 17.1875 10.9375 
Q 13.671875 -2.34375 9.765625 -9.375 
Q 6.25 -4.6875 3.515625 -3.515625 
Q 7.8125 2.734375 9.375 9.171875 
Q 10.9375 15.625 11.515625 21.484375 
Q 12.109375 27.34375 12.109375 31.640625 
Q 16.015625 30.46875 20.703125 30.078125 
Q 18.75 24.21875 18.75 19.53125 
Q 18.75 14.84375 26.5625 9.765625 
L 26.5625 40.625 
Q 13.28125 40.625 6.25 40.234375 
L 6.25 46.484375 
Q 13.671875 46.09375 24.609375 46.09375 
L 24.609375 61.328125 
Q 16.40625 61.328125 9.375 60.9375 
L 9.375 67.578125 
Q 16.40625 67.1875 24.609375 67.1875 
Q 24.609375 74.21875 24.21875 81.25 
L 32.03125 81.25 
Q 31.640625 75 31.640625 67.1875 
Q 37.5 67.1875 43.75 67.578125 
L 43.75 60.9375 
Q 37.109375 61.328125 31.640625 61.328125 
L 31.640625 46.09375 
Q 39.84375 46.09375 46.875 46.484375 
L 46.875 40.234375 
Q 39.84375 40.625 33.59375 40.625 
L 33.59375 27.734375 
Q 38.671875 27.734375 44.53125 28.125 
L 44.53125 21.875 
Q 39.0625 22.265625 33.59375 22.265625 
L 33.59375 5.46875 
Q 45.703125 -0.78125 64.84375 -0.78125 
Q 84.375 -0.78125 96.875 1.171875 
Q 94.140625 -3.125 93.75 -7.8125 
z
M 92.1875 7.03125 
Q 58.59375 7.03125 51.171875 6.640625 
L 51.171875 13.671875 
Q 58.59375 13.28125 84.375 13.28125 
L 84.375 25.390625 
Q 60.15625 25.390625 54.296875 25 
L 54.296875 31.640625 
Q 60.15625 31.25 84.375 31.25 
L 84.375 44.921875 
L 63.671875 44.921875 
Q 58.984375 44.921875 53.515625 44.53125 
L 53.515625 49.21875 
L 52.34375 47.265625 
Q 49.21875 51.5625 45.703125 52.734375 
Q 51.953125 60.546875 55.859375 68.546875 
Q 59.765625 76.5625 61.328125 82.03125 
Q 66.015625 80.078125 69.921875 79.296875 
Q 67.96875 76.5625 64.84375 70.3125 
L 89.84375 70.3125 
Q 82.03125 57.421875 78.515625 50.390625 
L 92.1875 50.390625 
Q 91.796875 43.359375 91.796875 28.125 
Q 91.796875 13.28125 92.1875 7.03125 
z
M 54.296875 50.78125 
Q 58.984375 50.390625 64.0625 50.390625 
L 70.703125 50.390625 
Q 73.046875 55.078125 78.515625 64.84375 
L 62.109375 64.84375 
Q 57.03125 55.078125 54.296875 50.78125 
z
" id="SimHei-36235"/>
     <path d="M 42.1875 23.4375 
Q 42.578125 26.5625 42.578125 30.078125 
Q 48.046875 28.90625 51.171875 28.515625 
Q 50.390625 26.5625 50 23.4375 
L 83.203125 23.4375 
Q 82.8125 17.96875 81.828125 10.34375 
Q 80.859375 2.734375 79.296875 -0.96875 
Q 77.734375 -4.6875 74.015625 -5.859375 
Q 70.3125 -7.03125 59.765625 -8.203125 
Q 59.375 -4.296875 55.46875 0.390625 
Q 67.578125 -0.390625 69.921875 0.96875 
Q 72.265625 2.34375 73.046875 5.46875 
Q 73.828125 8.59375 74.609375 17.1875 
L 48.828125 17.1875 
Q 44.53125 5.078125 35.15625 -0.1875 
Q 25.78125 -5.46875 12.109375 -9.375 
Q 10.546875 -5.078125 6.25 -1.953125 
Q 16.40625 -0.78125 26.359375 3.515625 
Q 36.328125 7.8125 40.625 17.1875 
L 24.21875 17.1875 
Q 16.796875 17.1875 10.15625 16.796875 
L 10.15625 23.828125 
Q 16.796875 23.4375 24.21875 23.4375 
z
M 36.71875 35.15625 
Q 47.265625 39.0625 52.34375 47.65625 
Q 49.609375 49.609375 44.53125 51.953125 
Q 47.265625 54.296875 48.4375 57.421875 
L 54.6875 53.515625 
Q 55.46875 56.640625 56.25 63.671875 
Q 50.390625 63.671875 45.703125 62.890625 
L 44.921875 69.140625 
L 56.25 69.140625 
Q 56.25 76.5625 55.46875 81.25 
Q 58.984375 80.46875 64.453125 80.078125 
Q 63.28125 76.171875 63.28125 69.53125 
L 82.421875 69.921875 
Q 81.25 62.109375 80.859375 53.90625 
Q 80.46875 45.703125 82.21875 41.40625 
Q 83.984375 37.109375 85.734375 36.515625 
Q 87.5 35.9375 87.5 45.703125 
Q 90.625 42.578125 95.703125 41.796875 
Q 93.359375 32.421875 91.796875 30.078125 
Q 90.234375 27.734375 87.5 27.34375 
Q 84.765625 26.953125 79.875 31.25 
Q 75 35.546875 73.828125 43.75 
Q 72.65625 51.953125 73.828125 64.0625 
L 63.28125 63.671875 
Q 62.5 55.078125 61.71875 50 
Q 64.84375 48.046875 69.53125 45.3125 
Q 66.015625 42.578125 64.0625 39.84375 
Q 61.328125 42.1875 58.984375 43.75 
Q 53.125 36.328125 44.53125 30.46875 
Q 41.796875 33.203125 36.71875 35.15625 
z
M 39.453125 51.5625 
Q 33.203125 50 30.46875 49.609375 
L 30.46875 35.15625 
Q 30.078125 30.859375 25.96875 29.6875 
Q 21.875 28.515625 15.625 27.34375 
Q 15.234375 31.640625 12.5 35.9375 
Q 21.09375 35.546875 22.265625 36.328125 
Q 23.4375 37.109375 23.4375 41.015625 
L 23.4375 48.046875 
Q 13.671875 45.3125 7.03125 43.359375 
Q 5.859375 47.65625 3.515625 50.390625 
Q 10.546875 51.171875 23.4375 53.90625 
L 23.4375 62.890625 
Q 12.5 62.890625 6.640625 62.5 
L 6.640625 69.53125 
Q 12.5 69.140625 23.4375 69.140625 
Q 23.4375 76.171875 23.046875 80.46875 
L 31.640625 80.46875 
Q 30.46875 76.5625 30.46875 69.140625 
Q 34.375 69.140625 40.234375 69.53125 
L 40.234375 62.5 
Q 34.375 62.890625 30.46875 62.890625 
L 30.46875 55.46875 
Q 35.15625 56.25 39.84375 57.8125 
Q 39.453125 55.078125 39.453125 51.5625 
z
" id="SimHei-21183"/>
    </defs>
    <g transform="translate(185.16 35.472)scale(0.12 -0.12)">
     <use xlink:href="#SimHei-82"/>
     <use x="50" xlink:href="#SimHei-77"/>
     <use x="100" xlink:href="#SimHei-83"/>
     <use x="150" xlink:href="#SimHei-69"/>
     <use x="200" xlink:href="#SimHei-38543"/>
     <use x="300" xlink:href="#SimHei-97"/>
     <use x="350" xlink:href="#SimHei-108"/>
     <use x="400" xlink:href="#SimHei-112"/>
     <use x="450" xlink:href="#SimHei-21464"/>
     <use x="550" xlink:href="#SimHei-21270"/>
     <use x="650" xlink:href="#SimHei-36235"/>
     <use x="750" xlink:href="#SimHei-21183"/>
    </g>
   </g>
   <g id="legend_1">
    <g id="patch_7">
     <path d="M 335.72 76.12825 
L 407.72 76.12825 
Q 409.72 76.12825 409.72 74.12825 
L 409.72 48.472 
Q 409.72 46.472 407.72 46.472 
L 335.72 46.472 
Q 333.72 46.472 333.72 48.472 
L 333.72 74.12825 
Q 333.72 76.12825 335.72 76.12825 
z
" style="fill:#ffffff;opacity:0.8;stroke:#cccccc;stroke-linejoin:miter;"/>
    </g>
    <g id="line2d_18">
     <path d="M 337.72 53.972 
L 357.72 53.972 
" style="fill:none;stroke:#1f77b4;stroke-linecap:square;stroke-width:1.5;"/>
    </g>
    <g id="line2d_19">
     <g>
      <use style="fill:#1f77b4;stroke:#ff0000;stroke-linejoin:bevel;" x="347.72" xlink:href="#me20ebfbbee" y="53.972"/>
     </g>
    </g>
    <g id="text_26">
     <!-- now_RMSE -->
     <defs>
      <path d="M 43.75 1.953125 
L 35.9375 1.953125 
L 35.9375 30.078125 
Q 35.9375 34.765625 33.59375 37.5 
Q 31.25 40.234375 27.34375 40.234375 
Q 22.265625 40.234375 17.765625 34.953125 
Q 13.28125 29.6875 13.28125 21.875 
L 13.28125 1.953125 
L 5.46875 1.953125 
L 5.46875 45.703125 
L 13.28125 45.703125 
L 13.28125 37.5 
Q 16.40625 41.796875 20.109375 44.140625 
Q 23.828125 46.484375 29.6875 46.484375 
Q 36.71875 46.484375 40.234375 42.578125 
Q 43.75 38.671875 43.75 32.8125 
z
" id="SimHei-110"/>
      <path d="M 45.703125 23.828125 
Q 45.703125 13.671875 39.453125 7.421875 
Q 33.203125 1.171875 24.609375 1.171875 
Q 16.015625 1.171875 9.765625 7.421875 
Q 3.515625 13.671875 3.515625 23.828125 
Q 3.515625 33.984375 9.765625 40.234375 
Q 16.015625 46.484375 24.609375 46.484375 
Q 33.203125 46.484375 39.453125 40.234375 
Q 45.703125 33.984375 45.703125 23.828125 
z
M 37.109375 23.828125 
Q 37.109375 31.640625 33.203125 35.546875 
Q 29.296875 39.453125 24.609375 39.453125 
Q 19.921875 39.453125 16.015625 35.546875 
Q 12.109375 31.640625 12.109375 23.828125 
Q 12.109375 16.015625 16.015625 12.109375 
Q 19.921875 8.203125 24.609375 8.203125 
Q 29.296875 8.203125 33.203125 12.109375 
Q 37.109375 16.015625 37.109375 23.828125 
z
" id="SimHei-111"/>
      <path d="M 48.046875 45.703125 
L 38.28125 1.171875 
L 30.859375 1.171875 
L 24.609375 35.15625 
L 23.828125 35.15625 
L 17.578125 1.171875 
L 10.15625 1.171875 
L 0.390625 45.703125 
L 8.59375 45.703125 
L 13.671875 16.40625 
L 14.453125 16.40625 
L 19.921875 45.703125 
L 28.515625 45.703125 
L 33.984375 16.40625 
L 34.765625 16.40625 
L 39.84375 45.703125 
z
" id="SimHei-119"/>
      <path d="M 49.21875 -13.28125 
L 0 -13.28125 
L 0 -8.59375 
L 49.21875 -8.59375 
z
" id="SimHei-95"/>
     </defs>
     <g transform="translate(365.72 57.472)scale(0.1 -0.1)">
      <use xlink:href="#SimHei-110"/>
      <use x="50" xlink:href="#SimHei-111"/>
      <use x="100" xlink:href="#SimHei-119"/>
      <use x="150" xlink:href="#SimHei-95"/>
      <use x="200" xlink:href="#SimHei-82"/>
      <use x="250" xlink:href="#SimHei-77"/>
      <use x="300" xlink:href="#SimHei-83"/>
      <use x="350" xlink:href="#SimHei-69"/>
     </g>
    </g>
    <g id="line2d_20">
     <path d="M 337.72 67.300125 
L 357.72 67.300125 
" style="fill:none;stroke:#ff7f0e;stroke-linecap:square;stroke-width:1.5;"/>
    </g>
    <g id="line2d_21"/>
    <g id="text_27">
     <!-- old_RMSE -->
     <defs>
      <path d="M 42.96875 1.953125 
L 35.15625 1.953125 
L 35.15625 7.8125 
Q 32.8125 4.296875 29.6875 2.734375 
Q 26.5625 1.171875 22.265625 1.171875 
Q 14.453125 1.171875 8.984375 6.828125 
Q 3.515625 12.5 3.515625 23.828125 
Q 3.515625 35.15625 8.984375 41.015625 
Q 14.453125 46.875 22.265625 46.875 
Q 26.5625 46.875 29.6875 45.109375 
Q 32.8125 43.359375 35.15625 39.84375 
L 35.15625 68.75 
L 42.96875 68.75 
z
M 35.15625 23.828125 
Q 35.15625 31.25 31.828125 35.546875 
Q 28.515625 39.84375 23.828125 39.84375 
Q 17.96875 39.84375 15.03125 35.546875 
Q 12.109375 31.25 12.109375 23.828125 
Q 12.109375 16.40625 15.03125 12.296875 
Q 17.96875 8.203125 23.828125 8.203125 
Q 28.515625 8.203125 31.828125 12.296875 
Q 35.15625 16.40625 35.15625 23.828125 
z
" id="SimHei-100"/>
     </defs>
     <g transform="translate(365.72 70.800125)scale(0.1 -0.1)">
      <use xlink:href="#SimHei-111"/>
      <use x="50" xlink:href="#SimHei-108"/>
      <use x="100" xlink:href="#SimHei-100"/>
      <use x="150" xlink:href="#SimHei-95"/>
      <use x="200" xlink:href="#SimHei-82"/>
      <use x="250" xlink:href="#SimHei-77"/>
      <use x="300" xlink:href="#SimHei-83"/>
      <use x="350" xlink:href="#SimHei-69"/>
     </g>
    </g>
   </g>
  </g>
 </g>
 <defs>
  <clipPath id="pa31c217d88">
   <rect height="266.112" width="357.12" x="57.6" y="41.472"/>
  </clipPath>
 </defs>
</svg>
